<svg width="63" height="67" viewBox="0 0 63 67" fill="none" xmlns="http://www.w3.org/2000/svg">
<path d="M0 65.0949C0 66.1465 0.86071 67 1.92123 67C2.98175 67 3.84246 66.1465 3.84246 65.0949C3.84246 53.3097 11.6878 42.7037 22.9817 39.0754C25.5821 40.2509 28.4611 40.9224 31.5005 40.9224C34.5524 40.9224 37.4419 40.2452 40.05 39.0602C51.3199 42.6371 59.1575 53.2649 59.1575 65.0949C59.1575 66.1465 60.0183 67 61.0788 67C62.1393 67 63 66.1465 63 65.0949C63 52.6876 55.4208 41.4482 44.194 36.5578C49.0173 32.8084 52.1335 26.9949 52.1335 20.4612C52.1335 9.17897 42.877 0 31.4995 0C20.122 0 10.8655 9.17897 10.8655 20.4612C10.8655 27.0082 13.9942 32.8323 18.8348 36.5797C7.58694 41.5073 0 52.7276 0 65.0949ZM14.708 20.4612C14.708 11.2794 22.2402 3.81028 31.4995 3.81028C40.7589 3.81028 48.2911 11.2794 48.2911 20.4612C48.2911 29.643 40.7589 37.1112 31.4995 37.1112C22.2402 37.1112 14.708 29.643 14.708 20.4612Z" fill="#BEBEBE"/>
</svg>
