<svg width="32" height="34" viewBox="0 0 32 34" fill="none" xmlns="http://www.w3.org/2000/svg">
<g clip-path="url(#clip0_509_91)">
<path d="M0 33.0332C0 33.5669 0.437186 34 0.975863 34C1.51454 34 1.95173 33.5669 1.95173 33.0332C1.95173 27.0527 5.93666 21.6705 11.6732 19.8293C12.9941 20.4258 14.4564 20.7666 16.0003 20.7666C17.5504 20.7666 19.0181 20.4229 20.3429 19.8216C26.0673 21.6367 30.0483 27.0299 30.0483 33.0332C30.0483 33.5669 30.4855 34 31.0242 34C31.5628 34 32 33.5669 32 33.0332C32 26.737 28.1502 21.0334 22.4477 18.5517C24.8977 16.649 26.4805 13.6989 26.4805 10.3833C26.4805 4.65798 21.7788 0 15.9997 0C10.2207 0 5.51898 4.65798 5.51898 10.3833C5.51898 13.7057 7.10817 16.6612 9.56688 18.5628C3.85368 21.0634 0 26.7573 0 33.0332ZM7.47073 10.3833C7.47073 5.72387 11.2966 1.93357 15.9997 1.93357C20.7029 1.93357 24.5288 5.72387 24.5288 10.3833C24.5288 15.0427 20.7029 18.8325 15.9997 18.8325C11.2966 18.8325 7.47073 15.0427 7.47073 10.3833Z" fill="#BEBEBE"/>
</g>
<defs>
<clipPath id="clip0_509_91">
<rect width="32" height="34" fill="white"/>
</clipPath>
</defs>
</svg>
