<svg width="75" height="64" viewBox="0 0 75 64" fill="none" xmlns="http://www.w3.org/2000/svg">
<path d="M67.5563 12.3382H58.3979C58.0583 12.3382 57.7169 12.2664 57.4145 12.1325C57.3639 12.0935 57.3098 12.0582 57.2532 12.0278C56.8199 11.7929 56.4821 11.4229 56.2734 10.9543L51.6805 0.735154C51.4791 0.288463 51.0342 0 50.5437 0H23.0143C22.5232 0 22.0784 0.288463 21.8769 0.736371L17.2834 10.9835C16.9159 11.8063 16.0827 12.3382 15.1607 12.3382H7.25235C7.12455 12.3382 6.9438 12.3382 6.74358 12.3723C4.1748 12.5329 1.88475 14.0738 0.764366 16.3815C0.26412 17.3479 0 18.458 0 19.5911V56.2782C0 60.262 3.25342 63.5032 7.25235 63.5032H67.5563C71.54 63.5032 74.7813 60.262 74.7813 56.2782V19.5911C74.7813 15.5916 71.54 12.3382 67.5563 12.3382ZM72.2885 56.2782C72.2885 58.8878 70.1658 61.0105 67.5563 61.0105H7.25235C4.62758 61.0105 2.49271 58.8878 2.49271 56.2782V19.5911C2.49271 18.8438 2.65581 18.15 2.99235 17.4989C3.74332 15.9531 5.26353 14.9404 6.96084 14.8564C7.03995 14.8516 7.17506 14.8504 7.25235 14.8309H15.1607C17.0643 14.8309 18.7909 13.7196 19.5589 12.0022L23.8213 2.49271H49.7373L53.9979 11.9718C54.4057 12.8883 55.0958 13.6588 55.9496 14.1542C56.0878 14.2588 56.2131 14.3209 56.2898 14.3586C56.9446 14.6678 57.6737 14.8309 58.3979 14.8309H67.5563C70.1658 14.8309 72.2885 16.9658 72.2885 19.5911V56.2782Z" fill="#BEBEBE"/>
<path d="M37.4101 18.699C28.6485 18.699 21.5203 25.8168 21.5203 34.5656C21.5203 43.3279 28.6485 50.4554 37.4101 50.4554C46.1717 50.4554 53.2999 43.3279 53.2999 34.5656C53.2999 25.8168 46.1717 18.699 37.4101 18.699ZM37.4101 47.9627C30.0227 47.9627 24.013 41.9525 24.013 34.5656C24.013 27.191 30.0227 21.1917 37.4101 21.1917C44.7976 21.1917 50.8072 27.191 50.8072 34.5656C50.8072 41.9525 44.7976 47.9627 37.4101 47.9627Z" fill="#BEBEBE"/>
</svg>
