<svg width="65" height="56" viewBox="0 0 65 56" fill="none" xmlns="http://www.w3.org/2000/svg">
<path d="M32.3003 12.96C29.1061 12.96 25.9836 13.9101 23.3278 15.6902C20.6719 17.4702 18.6019 20.0003 17.3795 22.9605C16.1571 25.9206 15.8373 29.1779 16.4605 32.3204C17.0836 35.4629 18.6218 38.3494 20.8804 40.615C23.1391 42.8807 26.0167 44.4236 29.1496 45.0486C32.2824 45.6737 35.5297 45.3529 38.4807 44.1268C41.4318 42.9006 43.9541 40.8242 45.7287 38.1602C47.5033 35.4961 48.4505 32.364 48.4505 29.1599C48.4505 24.8634 46.7489 20.7429 43.7202 17.7048C40.6915 14.6667 36.5836 12.96 32.3003 12.96ZM32.3003 42.1199C29.745 42.1199 27.247 41.3598 25.1223 39.9358C22.9976 38.5117 21.3416 36.4876 20.3637 34.1195C19.3858 31.7514 19.1299 29.1456 19.6284 26.6316C20.127 24.1176 21.3575 21.8083 23.1644 19.9958C24.9713 18.1834 27.2735 16.949 29.7797 16.449C32.286 15.9489 34.8838 16.2056 37.2446 17.1865C39.6055 18.1674 41.6233 19.8285 43.043 21.9598C44.4627 24.091 45.2204 26.5967 45.2204 29.1599C45.2204 32.5971 43.8592 35.8936 41.4362 38.324C39.0132 40.7545 35.7269 42.1199 32.3003 42.1199Z" fill="#BEBEBE"/>
<path d="M53.2955 6.47999H46.2217L44.8813 3.7908C44.2669 2.68869 43.3823 1.7621 42.3112 1.09874C41.2401 0.435384 40.0179 0.057202 38.7604 0H25.8403C24.5827 0.057202 23.3606 0.435384 22.2894 1.09874C21.2183 1.7621 20.3337 2.68869 19.7193 3.7908L18.3789 6.47999H11.3051C8.30681 6.47999 5.43131 7.67474 3.31119 9.8014C1.19107 11.9281 0 14.8124 0 17.82V43.7399C0 46.7475 1.19107 49.6319 3.31119 51.7585C5.43131 53.8852 8.30681 55.0799 11.3051 55.0799H53.2955C56.2938 55.0799 59.1693 53.8852 61.2894 51.7585C63.4096 49.6319 64.6006 46.7475 64.6006 43.7399V17.82C64.6006 14.8124 63.4096 11.9281 61.2894 9.8014C59.1693 7.67474 56.2938 6.47999 53.2955 6.47999ZM61.3706 43.7399C61.3706 45.8882 60.5198 47.9485 59.0055 49.4675C57.4911 50.9865 55.4372 51.8399 53.2955 51.8399H11.3051C9.16347 51.8399 7.10954 50.9865 5.59517 49.4675C4.0808 47.9485 3.23003 45.8882 3.23003 43.7399V17.82C3.23003 15.6717 4.0808 13.6115 5.59517 12.0924C7.10954 10.5734 9.16347 9.71999 11.3051 9.71999H19.3802C19.6784 9.71908 19.9706 9.63535 20.2243 9.47808C20.478 9.32081 20.6833 9.09615 20.8176 8.82899L22.6102 5.24879C22.9492 4.67925 23.4195 4.19958 23.9815 3.85005C24.5435 3.50052 25.1809 3.29131 25.8403 3.24H38.7604C39.4197 3.29131 40.0571 3.50052 40.6191 3.85005C41.1812 4.19958 41.6514 4.67925 41.9904 5.24879L43.7831 8.82899C43.9173 9.09615 44.1226 9.32081 44.3763 9.47808C44.63 9.63535 44.9222 9.71908 45.2204 9.71999H53.2955C55.4372 9.71999 57.4911 10.5734 59.0055 12.0924C60.5198 13.6115 61.3706 15.6717 61.3706 17.82V43.7399Z" fill="#BEBEBE"/>
</svg>
