<svg width="40" height="36" viewBox="0 0 40 36" fill="none" xmlns="http://www.w3.org/2000/svg">
<path d="M36.9375 0.624971C36.2734 0.648409 35.6641 0.999971 35.3125 1.56247L16.5 30.3437L4.31251 19.8125C3.78907 19.2695 3.00392 19.0664 2.28126 19.2929C1.56251 19.5156 1.02736 20.125 0.902356 20.8672C0.777356 21.6133 1.07814 22.3633 1.68751 22.8125L15.625 34.875C16.0625 35.2461 16.6406 35.4101 17.207 35.3281C17.7774 35.2422 18.2813 34.9179 18.5938 34.4375L38.6875 3.74997C39.1172 3.12107 39.1524 2.30857 38.7813 1.6445C38.4102 0.984347 37.6953 0.589815 36.9375 0.624971Z" fill="#4886FF"/>
</svg>
