<svg width="71" height="64" viewBox="0 0 71 64" fill="none" xmlns="http://www.w3.org/2000/svg">
<path d="M51.53 0C45.2592 0.00965917 39.3848 3.06025 35.78 8.17791C32.1752 3.06025 26.3009 0.00965917 20.03 0C9.77498 0 0.780029 9.51656 0.780029 20.3638C0.780029 30.9355 6.76489 41.8237 18.0886 51.8522C23.3352 56.4897 29.0905 60.521 35.2445 63.8705C35.5806 64.0432 35.9794 64.0432 36.3155 63.8705C42.4673 60.521 48.2209 56.4891 53.4657 51.8522C64.7952 41.8237 70.78 30.9355 70.78 20.3638C70.78 9.51656 61.7851 0 51.53 0ZM35.78 61.5136C31.495 59.1551 3.11336 42.6777 3.11336 20.3638C3.11336 10.7558 11.0174 2.32729 20.03 2.32729C26.1357 2.33809 31.7639 5.62335 34.7638 10.9279C34.9882 11.27 35.3704 11.4757 35.78 11.4757C36.1896 11.4757 36.5719 11.27 36.7963 10.9279C39.7961 5.62335 45.4244 2.33809 51.53 2.32729C60.5426 2.32729 68.4467 10.7558 68.4467 20.3638C68.4467 42.6777 40.065 59.1551 35.78 61.5136Z" fill="#BEBEBE"/>
</svg>
