<svg width="33" height="33" viewBox="0 0 33 33" fill="none" xmlns="http://www.w3.org/2000/svg">
<g clip-path="url(#clip0_509_81)">
<mask id="mask0_509_81" style="mask-type:luminance" maskUnits="userSpaceOnUse" x="0" y="0" width="33" height="33">
<path d="M33 0H0V33H33V0Z" fill="white"/>
</mask>
<g mask="url(#mask0_509_81)">
<path d="M32.1751 14.289C32.174 14.2882 32.1733 14.2872 32.1725 14.2865L18.7111 0.825553C18.1373 0.251519 17.3745 -0.0644531 16.563 -0.0644531C15.7516 -0.0644531 14.9887 0.251519 14.4147 0.825553L0.960286 14.2797C0.955757 14.2842 0.95097 14.289 0.94669 14.2935C-0.231595 15.4786 -0.229581 17.4014 0.952482 18.5834C1.49253 19.1238 2.20554 19.4364 2.96816 19.4694C2.99938 19.4724 3.03059 19.474 3.06207 19.474H3.59834V29.3801C3.59834 31.3407 5.19355 32.9356 7.15411 32.9356H12.4207C12.9546 32.9356 13.3875 32.5026 13.3875 31.9688V24.2022C13.3875 23.3076 14.1153 22.58 15.0098 22.58H18.1162C19.0107 22.58 19.7383 23.3076 19.7383 24.2022V31.9688C19.7383 32.5026 20.1711 32.9356 20.7051 32.9356H25.9717C27.9325 32.9356 29.5274 31.3407 29.5274 29.3801V19.474H30.0249C30.8361 19.474 31.599 19.158 32.1733 18.5837C33.3566 17.3999 33.3571 15.4735 32.1751 14.289ZM30.8059 17.2166C30.5972 17.4253 30.3197 17.5404 30.0249 17.5404H28.5606C28.0266 17.5404 27.5938 17.9731 27.5938 18.5072V29.3801C27.5938 30.2744 26.8662 31.002 25.9717 31.002H21.6719V24.2022C21.6719 22.2416 20.077 20.6464 18.1162 20.6464H15.0098C13.049 20.6464 11.4539 22.2416 11.4539 24.2022V31.002H7.15411C6.25981 31.002 5.53193 30.2744 5.53193 29.3801V18.5072C5.53193 17.9731 5.09912 17.5404 4.56513 17.5404H3.12601C3.11091 17.5393 3.09606 17.5386 3.0807 17.5383C2.79267 17.5333 2.52252 17.419 2.3201 17.2163C1.88957 16.7858 1.88957 16.0851 2.3201 15.6543L2.3206 15.6538L2.32136 15.6531L15.7823 2.19267C15.9907 1.98395 16.2679 1.86915 16.563 1.86915C16.8578 1.86915 17.135 1.98395 17.3437 2.19267L30.8017 15.6503C30.8036 15.6523 30.8059 15.6543 30.8079 15.6564C31.2362 16.0877 31.2354 16.7868 30.8059 17.2166Z" fill="#BEBEBE"/>
</g>
</g>
<defs>
<clipPath id="clip0_509_81">
<rect width="33" height="33" fill="white"/>
</clipPath>
</defs>
</svg>
