<svg width="64" height="64" viewBox="0 0 64 64" fill="none" xmlns="http://www.w3.org/2000/svg">
<path d="M62.2808 27.8369C62.2794 27.8354 62.2779 27.834 62.2764 27.8325L36.1668 1.72656C35.0539 0.613281 33.5743 0 32.0004 0C30.4265 0 28.9469 0.612793 27.8335 1.72607L1.73755 27.8188C1.72876 27.8276 1.71997 27.8369 1.71118 27.8457C-0.574212 30.144 -0.570305 33.873 1.72241 36.1655C2.76988 37.2134 4.15332 37.8203 5.63248 37.8838C5.69254 37.8896 5.75309 37.8926 5.81414 37.8926H6.85477V57.105C6.85477 60.9067 9.94835 64 13.7515 64H23.9664C25.0016 64 25.8416 63.1606 25.8416 62.125V47.0625C25.8416 45.3276 27.2528 43.9165 28.9879 43.9165H35.0129C36.748 43.9165 38.1592 45.3276 38.1592 47.0625V62.125C38.1592 63.1606 38.9987 64 40.0344 64H50.2493C54.0525 64 57.146 60.9067 57.146 57.105V37.8926H58.111C59.6844 37.8926 61.164 37.2798 62.2779 36.1665C64.5731 33.8701 64.574 30.1348 62.2808 27.8369Z" fill="#5784F7"/>
</svg>
