<svg width="65" height="65" viewBox="0 0 65 65" fill="none" xmlns="http://www.w3.org/2000/svg">
<g clip-path="url(#clip0_384_2)">
<path d="M63.375 28.145C63.373 28.1435 63.3715 28.1415 63.37 28.14L36.8551 1.62609C35.7249 0.495416 34.2223 -0.126953 32.624 -0.126953C31.0257 -0.126953 29.5231 0.495416 28.3924 1.62609L1.89135 28.1266C1.88243 28.1355 1.873 28.145 1.86457 28.1539C-0.456294 30.4882 -0.452327 34.2754 1.87598 36.6037C2.93971 37.668 4.34413 38.2839 5.84625 38.3488C5.90774 38.3548 5.96923 38.3578 6.03122 38.3578H7.08751V57.8699C7.08751 61.7316 10.2296 64.8732 14.0913 64.8732H24.4648C25.5166 64.8732 26.3691 64.0202 26.3691 62.9689V47.671C26.3691 45.909 27.8027 44.4758 29.5647 44.4758H35.6833C37.4452 44.4758 38.8784 45.909 38.8784 47.671V62.9689C38.8784 64.0202 39.7309 64.8732 40.7827 64.8732H51.1562C55.0184 64.8732 58.16 61.7316 58.16 57.8699V38.3578H59.1399C60.7377 38.3578 62.2403 37.7354 63.3715 36.6042C65.7023 34.2725 65.7033 30.4782 63.375 28.145ZM60.6782 33.9114C60.2671 34.3225 59.7206 34.5492 59.1399 34.5492H56.2557C55.2038 34.5492 54.3514 35.4016 54.3514 36.4535V57.8699C54.3514 59.6314 52.9182 61.0646 51.1562 61.0646H42.687V47.671C42.687 43.8093 39.5454 40.6672 35.6833 40.6672H29.5647C25.7025 40.6672 22.5605 43.8093 22.5605 47.671V61.0646H14.0913C12.3298 61.0646 10.8961 59.6314 10.8961 57.8699V36.4535C10.8961 35.4016 10.0436 34.5492 8.99181 34.5492H6.15718C6.12743 34.5472 6.09817 34.5457 6.06792 34.5452C5.5006 34.5353 4.96848 34.3101 4.56977 33.9109C3.72176 33.0629 3.72176 31.6828 4.56977 30.8343C4.57027 30.8343 4.57027 30.8338 4.57076 30.8333L4.57225 30.8318L31.0862 4.31889C31.4968 3.90778 32.0428 3.68165 32.624 3.68165C33.2047 3.68165 33.7507 3.90778 34.1618 4.31889L60.6698 30.8264C60.6737 30.8303 60.6782 30.8343 60.6822 30.8383C61.5257 31.6878 61.5242 33.0649 60.6782 33.9114Z" fill="#BEBEBE"/>
</g>
<defs>
<clipPath id="clip0_384_2">
<rect width="65" height="65" fill="white"/>
</clipPath>
</defs>
</svg>
