<svg width="105" height="113" viewBox="0 0 105 113" fill="none" xmlns="http://www.w3.org/2000/svg">
<path fill-rule="evenodd" clip-rule="evenodd" d="M49.8783 80.036C50.4432 80.3985 57.4166 86.0299 59.5872 88.6848C61.7577 91.3396 59.7955 93.8653 62.8766 93.7398C65.9576 93.6142 70.3583 90.1294 71.8255 88.9679C73.2924 87.8062 74.2723 80.7594 76.3369 81.138C78.4015 81.5166 82.5629 77.4574 82.5629 77.4574C82.5629 77.4574 83.1223 72.6643 82.3933 72.617C81.6642 72.5697 76.7436 68.9915 77.7393 65.6348C78.7347 62.2779 86.9421 59.343 86.2269 57.2019C85.5119 55.0609 84.4435 45.3321 83.2342 44.3456C82.025 43.3592 81.2983 48.8867 78.0333 46.2653C74.7681 43.6442 74.3064 45.9764 72.9785 44.5985C71.6506 43.2206 74.3112 39.355 72.0385 39.7892C69.7659 40.2234 63.1378 37.4421 62.6097 37.6289C62.0816 37.8158 61.6042 42.4514 59.921 39.6887C58.2373 36.9261 56.7763 31.2567 56.7763 31.2567C56.7763 31.2567 52.872 27.3837 50.458 24.783C48.044 22.1824 50.3421 17.979 47.8159 19.933C45.2898 21.887 42.7097 25.8043 41.6904 26.7275C40.671 27.6502 38.2252 29.6561 35.988 30.8489C33.751 32.0419 28.0161 34.9862 27.1225 35.2538C26.229 35.5215 18.9355 35.2577 18.9242 36.9325C18.9128 38.6074 18.0009 41.5973 20.0187 42.8922C22.0362 44.1869 24.4576 45.7407 24.813 47.1255C25.1683 48.5103 22.5416 53.3436 23.9136 54.224C25.2855 55.1044 26.8162 56.5076 26.2413 57.6107C25.6665 58.7136 23.3486 59.855 22.5344 60.384C21.7202 60.913 15.7166 61.687 17.8093 63.871C19.9022 66.0552 22.1378 65.0715 23.8343 65.9497C25.5307 66.8279 27.6321 67.7555 25.7132 69.7839C23.7945 71.8124 20.464 72.8294 20.2122 74.1399C19.9601 75.4501 17.816 80.8036 18.34 81.2451C18.8637 81.6864 19.9002 84.2445 21.9746 83.1573C24.0492 82.0699 28.6428 80.0761 30.5557 78.8852C32.4685 77.6944 34.308 75.4049 36.1233 76.6748C37.9385 77.9448 36.9951 79.5477 40.4855 78.8434C43.976 78.1389 42.7325 76.1849 44.9911 77.8443C47.2488 79.504 49.8783 80.036 49.8783 80.036Z" fill="#5784F7"/>
<path fill-rule="evenodd" clip-rule="evenodd" d="M93.3136 43.6006C93.7145 43.9914 94.7885 45.5696 96.0534 46.2446C97.6739 47.1092 99.5937 47.0422 100.65 46.9764C102.531 46.8585 102.28 41.1907 101.157 40.4716C100.761 40.2185 99.0777 40.8342 97.4466 39.5117C96.7697 38.9626 96.4135 36.471 95.6659 36.0003C93.0984 34.3832 90.7596 32.356 89.9196 33.4973C89.1274 34.5741 90.3886 36.1347 90.6787 37.3157C91.3753 40.146 91.3108 42.2066 93.3136 43.6006Z" fill="#5784F7"/>
</svg>
