<svg width="84" height="67" viewBox="0 0 84 67" fill="none" xmlns="http://www.w3.org/2000/svg">
<path fill-rule="evenodd" clip-rule="evenodd" d="M2.42967 27.6413C4.26323 26.2325 8.19115 23.5059 10.4034 22.6622C14.6816 21.4584 16.4292 22.2073 16.1925 16.6825C16.1801 15.9198 16.3664 14.4939 16.6854 14.4972C18.8497 15.2478 19.4709 16.972 20.0663 13.8636C20.912 11.5722 22.5971 8.60425 24.7457 7.24313C27.4971 5.31792 29.2195 10.5393 31.4594 9.25108C32.4396 8.64051 33.6576 6.14374 34.6703 4.41351C36.3214 1.09129 38.3076 3.30567 38.1805 0.646795C38.2406 0.468712 38.3979 0.361073 38.7815 0.342765C42.3548 0.965796 44.5629 3.20215 49.2858 1.94912C49.5952 1.8764 49.8277 1.85106 49.8087 1.99764C47.9565 5.43672 44.8326 7.56613 48.89 9.71828C50.8954 10.8789 53.5471 16.0914 56.5496 15.2371C61.747 13.665 59.336 8.46212 60.5781 5.48058C62.7305 1.51626 61.8926 1.68731 62.7651 0.175109C62.9176 -0.0105514 62.9408 -0.0875127 63.0164 0.140979C66.2661 7.20654 64.7927 5.55126 65.5554 7.43248C65.7065 7.74661 65.9094 7.91033 66.167 8.06746C69.4306 9.41656 67.9722 9.32231 69.8611 16.4747C71.4168 23.1146 75.6983 20.0754 76.2783 25.707C76.3807 26.3439 76.4952 26.9519 76.7775 27.4924C76.9742 27.8899 77.3391 28.2553 77.7102 28.5291C80.9705 30.4795 79.0807 31.7688 80.8575 33.9312C84.6073 38.661 84.4582 37.1747 83.1963 45.457C82.636 49.9978 77.9832 53.9348 75.3055 57.9381C74.5967 59.1865 74.0033 61.8629 73.6417 63.3752C73.4215 65.0961 72.4857 64.95 70.319 65.0876C67.5257 65.1483 68.1266 67.9711 65.3652 66.0078C65.0463 65.7985 64.7379 65.6279 64.3768 65.5981C62.7517 65.4859 61.46 66.9465 59.9096 66.9972C57.9766 67.1096 54.9225 63.8606 53.9666 62.5198C53.331 61.7777 53.191 60.3822 52.4497 59.5522C49.6128 57.0419 46.8728 59.0301 45.1557 54.3603C44.311 52.1106 43.7434 50.9518 41.8034 50.1915C40.0345 49.4972 37.1929 48.9891 36.3567 48.9538C35.2237 49.048 32.5918 49.9084 30.1855 50.7966C23.1625 53.2761 24.956 53.8017 22.2611 54.9582C18.7993 55.9138 17.2668 54.6176 14.2279 56.6523C11.7734 58.2181 9.63754 59.825 6.88273 58.1211C6.27412 57.3082 7.34545 54.1225 6.76231 52.5471C5.65554 50.4031 4.85565 48.0332 3.74078 45.8735C-0.437043 39.048 -0.605746 40.2027 0.774677 37.016C1.11961 32.3343 -1.36093 31.0165 2.42967 27.6413Z" fill="#5784F7"/>
</svg>
