<svg width="101" height="96" viewBox="0 0 101 96" fill="none" xmlns="http://www.w3.org/2000/svg">
<path d="M98.9429 42.4957L53.7922 1.35451C51.8104 -0.45157 48.8219 -0.451374 46.8409 1.35432L1.68993 42.4959C0.10241 43.9425 -0.421981 46.1713 0.353599 48.174C1.12938 50.1766 3.01821 51.4705 5.16589 51.4705H12.3773V92.6908C12.3773 94.3251 13.7024 95.6503 15.3367 95.6503H40.0849C41.7192 95.6503 43.0443 94.3253 43.0443 92.6908V67.6631H57.5893V92.691C57.5893 94.3253 58.9145 95.6505 60.5488 95.6505H85.2958C86.9301 95.6505 88.2552 94.3255 88.2552 92.691V51.4705H95.468C97.6155 51.4705 99.5045 50.1764 100.28 48.174C101.055 46.1711 100.53 43.9425 98.9429 42.4957Z" fill="#5784F7"/>
</svg>
