<svg width="112" height="102" viewBox="0 0 112 102" fill="none" xmlns="http://www.w3.org/2000/svg">
<rect width="52.1782" height="100.069" rx="6" transform="matrix(-0.570995 -0.820954 0.817338 -0.576158 29.7935 101.246)" fill="#5784F7"/>
<path d="M37.0316 76.9463C37.8386 76.3774 38.3297 75.4859 37.8212 74.7549L34.0665 69.3565L35.5366 68.3202L42.5623 72.3452C43.0544 72.6249 43.6344 72.5872 44.0393 72.2512C44.9911 71.5802 45.3915 69.8481 44.7713 68.9564C44.6705 68.808 44.5337 68.6876 44.3772 68.6116L38.336 65.3385C39.3561 63.7003 39.368 61.4545 37.5881 58.8955C34.9974 55.1707 31.9039 55.5569 29.0672 57.5565L24.7824 60.577C24.5211 60.7732 24.3548 61.078 24.3222 61.4228C24.2891 61.7668 24.392 62.1226 24.608 62.4106L34.7155 76.9428C35.2246 77.6747 36.2246 77.5151 37.0316 76.9463ZM29.1397 62.2729L31.2923 60.7556C32.4518 59.9382 33.5526 60.0135 34.6651 61.613C35.7776 63.2125 35.4715 64.2797 34.3119 65.0971L32.1594 66.6145L29.1397 62.2729Z" fill="white"/>
<path d="M50.958 66.9843L58.3269 61.7898C59.0102 61.3081 58.7912 60.3731 58.2828 59.642C57.6949 58.7967 56.8819 58.3815 56.2609 58.8193L50.7339 62.7153L48.0322 58.8308L51.1162 56.6568C51.7995 56.1751 51.5814 55.2394 51.1524 54.6227C50.6439 53.8916 49.8301 53.477 49.2091 53.9147L46.125 56.0888L43.4232 52.2042L48.9501 48.3082C49.5711 47.8704 49.3828 46.8459 48.7949 46.0006C48.2858 45.2687 47.4084 44.6275 46.7251 45.1092L39.3562 50.3037C38.6519 50.8002 38.1916 51.7791 38.7 52.5101L48.792 67.02C49.3011 67.7519 50.2537 67.4808 50.958 66.9843Z" fill="white"/>
<path d="M64.46 57.6114C65.267 57.0425 65.8616 56.0781 65.3531 55.347L59.9495 47.578L69.3608 52.7268C70.3109 53.2489 71.043 52.9709 71.7877 52.446C72.5955 51.8765 73.1068 50.9708 72.5983 50.2397L62.4908 35.7076C61.9662 34.9533 60.9978 35.1584 60.1908 35.7273C59.3838 36.2962 58.8611 37.1422 59.3857 37.8964L64.7893 45.6655L56.4932 40.9903C54.5469 39.8761 53.996 40.0942 52.8372 40.911C52.0294 41.4804 51.4244 42.4177 51.949 43.1719L62.041 57.6818C62.5495 58.4128 63.653 58.1803 64.46 57.6114Z" fill="white"/>
<path d="M68.3052 34.6644L71.162 32.6506L79.8435 45.1325C80.352 45.8635 81.4556 45.631 82.2626 45.0621C83.0696 44.4932 83.6641 43.5287 83.1556 42.7977L74.4741 30.3158L77.2477 28.3607C77.8687 27.9229 77.6967 26.9201 77.0933 26.0525C76.5687 25.2983 75.706 24.68 75.0227 25.1616L66.0802 31.4654C65.3969 31.9471 65.6798 32.9741 66.2044 33.7283C66.8078 34.5959 67.6842 35.1022 68.3052 34.6644Z" fill="white"/>
</svg>
