<svg width="78" height="86" viewBox="0 0 78 86" fill="none" xmlns="http://www.w3.org/2000/svg">
<g clip-path="url(#clip0_370_29)">
<path d="M35.7091 50.6629L38.7203 47.3423L31.9011 43.1431L35.7091 50.6629Z" fill="#5784F7"/>
<path d="M69.5949 0H51.5463C47.5842 0 42.2855 2.4198 39.4844 5.50885L2.45416 46.3364C0.871216 48.0811 0 50.4077 0 52.8885C0 55.3693 0.871811 57.696 2.45416 59.4406L24.0882 83.2941C25.6705 85.0388 27.7813 86 30.0308 86C32.2808 86 34.391 85.0388 35.974 83.2941L73.0036 42.4659C75.8053 39.3775 78 33.5354 78 29.1669V9.26584C77.9994 4.15657 74.2289 0 69.5949 0ZM32.2999 64.7264C30.0325 67.2269 27.1594 67.8758 26.1555 66.7689C25.6711 66.2341 25.3938 64.9363 25.9306 64.3445C26.6399 63.563 28.4401 64.5164 30.2057 62.5703C31.2442 61.4247 31.6768 59.9176 30.6384 58.7727C28.042 55.91 23.2824 62.9135 19.1798 58.3908C16.6013 55.5471 17.9337 52.1313 19.9243 49.9366C20.9455 48.8107 23.455 46.5779 24.5976 47.8376C24.9957 48.2759 25.5152 49.4596 24.8921 50.1465C24.3554 50.7377 23.2997 50.4516 21.8453 52.0546C20.5997 53.4292 20.392 54.765 21.2228 55.6803C23.3687 58.0476 28.1806 51.1006 32.6635 56.0432C35.1384 58.772 34.6886 62.0933 32.2999 64.7264ZM45.142 50.224C44.7617 50.6439 44.3463 50.8342 43.9303 50.5678L40.9709 48.7542L37.007 53.1247L38.6519 56.3876C38.8941 56.8456 38.7203 57.3042 38.3394 57.7235C37.7342 58.3914 36.5399 58.8685 35.9859 58.2583C35.9513 58.2195 35.899 58.1244 35.8472 58.0293L28.3008 42.3426C27.9372 41.5979 28.3359 40.6242 28.9763 39.9188C29.6338 39.1938 30.5164 38.7542 31.1912 39.1551L45.4193 47.4754C45.5056 47.5332 45.5752 47.5712 45.6264 47.6283C46.1631 48.2195 45.7484 49.556 45.142 50.224ZM54.2284 40.2049L48.7417 46.2551C48.2394 46.8088 47.5128 47.0759 47.0451 46.5602L35.7948 34.1561C35.3098 33.6213 35.6568 32.7815 36.2275 32.1516C36.7815 31.5414 37.5605 31.1405 38.0449 31.6746L48.0317 42.6864L52.2551 38.0298C52.7056 37.5331 53.4149 37.8199 53.9172 38.3736C54.4016 38.9077 54.6783 39.7095 54.2284 40.2049ZM63.2804 30.2252L57.1188 37.0187C56.6165 37.5725 55.8899 37.8396 55.4222 37.3238L44.1892 24.9388C43.7215 24.4237 43.9637 23.6219 44.4659 23.0688L50.6275 16.2746C51.1125 15.7405 51.8391 16.0463 52.3069 16.5613C52.843 17.1532 53.0507 17.9543 52.6008 18.451L47.702 23.8509L51.1643 27.6676L53.7952 24.7675C54.2451 24.2715 54.9378 24.4624 55.4049 24.9768C55.803 25.4158 56.0452 26.1795 55.5602 26.7136L52.9293 29.6143L56.4082 33.4501L61.3065 28.0495C61.7569 27.5534 62.4841 27.7824 63.0203 28.3743C63.4881 28.8893 63.7648 29.6911 63.2804 30.2252ZM65.2144 17.8047C64.7889 18.2732 64.1998 18.5422 63.5982 18.5422C62.9959 18.5422 62.408 18.2732 61.9831 17.8047C61.5564 17.3362 61.313 16.6866 61.313 16.0226C61.313 15.3593 61.5564 14.711 61.9831 14.2419C62.408 13.7734 62.9959 13.5051 63.5982 13.5051C64.1998 13.5051 64.7889 13.7734 65.2144 14.2419C65.6393 14.711 65.8833 15.3593 65.8833 16.0226C65.8833 16.6866 65.6393 17.3362 65.2144 17.8047Z" fill="#5784F7"/>
</g>
<defs>
<clipPath id="clip0_370_29">
<rect width="78" height="86" fill="white"/>
</clipPath>
</defs>
</svg>
