<svg width="75" height="75" viewBox="0 0 75 75" fill="none" xmlns="http://www.w3.org/2000/svg">
<path d="M32.1312 0.000958529C31.9632 0.0350341 31.8091 0.117825 31.6879 0.238993C31.5667 0.360161 31.4839 0.514337 31.4499 0.682272L29.2424 10.902C27.6005 11.4112 26.0255 12.0477 24.5276 12.8369L15.7522 7.19563C15.5854 7.0865 15.3862 7.03779 15.1879 7.05763C14.9895 7.07746 14.804 7.16464 14.6621 7.30464L7.30378 14.6628C7.16377 14.8047 7.07659 14.9903 7.05676 15.1886C7.03692 15.387 7.08563 15.5861 7.19477 15.7529L12.8361 24.5283C12.0469 26.0261 11.4104 27.6011 10.9012 29.243L0.681323 31.4504C0.489007 31.4935 0.316967 31.6005 0.193242 31.7539C0.0695169 31.9074 0.0014025 32.0982 0 32.2952V42.7057C0.0014025 42.9028 0.0695169 43.0936 0.193242 43.247C0.316967 43.4004 0.489007 43.5074 0.681323 43.5505L10.9012 45.758C11.4104 47.3999 12.0469 48.9748 12.8361 50.4727L7.19477 59.248C7.08563 59.4148 7.03692 59.614 7.05676 59.8123C7.07659 60.0107 7.16377 60.1962 7.30378 60.3381L14.6621 67.6963C14.804 67.8363 14.9895 67.9235 15.1879 67.9433C15.3862 67.9632 15.5854 67.9145 15.7522 67.8053L24.5276 62.164C26.0255 62.9532 27.6005 63.5898 29.2424 64.099L31.4499 74.3187C31.493 74.511 31.6 74.683 31.7534 74.8068C31.9068 74.9305 32.0976 74.9986 32.2947 75H42.7053C42.9024 74.9986 43.0932 74.9305 43.2466 74.8068C43.4 74.683 43.507 74.511 43.5501 74.3187L45.7576 64.099C47.3995 63.5898 48.9745 62.9532 50.4724 62.164L59.2478 67.8053C59.4146 67.9145 59.6138 67.9632 59.8121 67.9433C60.0105 67.9235 60.196 67.8363 60.3379 67.6963L67.6962 60.3381C67.8362 60.1962 67.9234 60.0107 67.9432 59.8123C67.9631 59.614 67.9144 59.4148 67.8052 59.248L62.1639 50.4727C62.9531 48.9748 63.5896 47.3999 64.0988 45.758L74.3187 43.5505C74.511 43.5074 74.683 43.4004 74.8068 43.247C74.9305 43.0936 74.9986 42.9028 75 42.7057V32.2952C74.9986 32.0982 74.9305 31.9074 74.8068 31.7539C74.683 31.6005 74.511 31.4935 74.3187 31.4504L64.0988 29.243C63.5896 27.6011 62.9531 26.0261 62.1639 24.5283L67.8052 15.7529C67.9144 15.5861 67.9631 15.387 67.9432 15.1886C67.9234 14.9903 67.8362 14.8047 67.6962 14.6628L60.3379 7.30464C60.196 7.16464 60.0105 7.07746 59.8121 7.05763C59.6138 7.03779 59.4146 7.0865 59.2478 7.19563L50.4724 12.8369C48.9745 12.0477 47.3995 11.4112 45.7576 10.902L43.5501 0.682272C43.507 0.489959 43.4 0.317921 43.2466 0.194198C43.0932 0.0704745 42.9024 0.00236101 42.7053 0.000958529H32.2947C32.2675 -0.00031951 32.2402 -0.00031951 32.2129 0.000958529C32.1857 -0.00031951 32.1584 -0.00031951 32.1312 0.000958529ZM33.0033 1.74512H41.9967L44.177 11.7196C44.2092 11.8723 44.2819 12.0135 44.3874 12.1285C44.4928 12.2436 44.6272 12.3282 44.7765 12.3736C46.6554 12.9167 48.4679 13.655 50.1453 14.5811C50.2803 14.6535 50.432 14.6891 50.585 14.6843C50.7381 14.6796 50.8873 14.6345 51.0174 14.5538L59.5749 9.04881L65.952 15.4259L60.4469 23.9832C60.3662 24.1134 60.3212 24.2625 60.3164 24.4156C60.3116 24.5687 60.3473 24.7203 60.4197 24.8553C61.3458 26.5327 62.0841 28.3452 62.6272 30.224C62.6726 30.3734 62.7572 30.5078 62.8723 30.6132C62.9873 30.7187 63.1286 30.7913 63.2812 30.8236L73.2558 33.0038V41.9972L63.2812 44.1774C63.1286 44.2096 62.9873 44.2823 62.8723 44.3877C62.7572 44.4932 62.6726 44.6276 62.6272 44.7769C62.0841 46.6557 61.3458 48.4683 60.4197 50.1457C60.3473 50.2806 60.3116 50.4323 60.3164 50.5854C60.3212 50.7384 60.3662 50.8876 60.4469 51.0177L65.952 59.5751L59.5749 65.9521L51.0174 60.4471C50.8873 60.3664 50.7381 60.3214 50.585 60.3166C50.432 60.3118 50.2803 60.3474 50.1453 60.4199C48.4679 61.346 46.6554 62.0843 44.7765 62.6273C44.6272 62.6727 44.4928 62.7574 44.3874 62.8724C44.2819 62.9875 44.2092 63.1287 44.177 63.2814L41.9967 73.2558H33.0033L30.823 63.2814C30.7908 63.1287 30.7181 62.9875 30.6126 62.8724C30.5072 62.7574 30.3728 62.6727 30.2235 62.6273C28.3446 62.0843 26.5321 61.346 24.8547 60.4199C24.7197 60.3474 24.568 60.3118 24.415 60.3166C24.2619 60.3214 24.1127 60.3664 23.9826 60.4471L15.4251 65.9521L9.04797 59.5751L14.5531 51.0177C14.6338 50.8876 14.6788 50.7384 14.6836 50.5854C14.6884 50.4323 14.6527 50.2806 14.5803 50.1457C13.6542 48.4683 12.9159 46.6557 12.3728 44.7769C12.3274 44.6276 12.2428 44.4932 12.1277 44.3877C12.0127 44.2823 11.8714 44.2096 11.7187 44.1774L1.74419 41.9972V33.0038L11.7187 30.8236C11.8714 30.7913 12.0127 30.7187 12.1277 30.6132C12.2428 30.5078 12.3274 30.3734 12.3728 30.224C12.9159 28.3452 13.6542 26.5327 14.5803 24.8553C14.6527 24.7203 14.6884 24.5687 14.6836 24.4156C14.6788 24.2625 14.6338 24.1134 14.5531 23.9832L9.04797 15.4259L15.4251 9.04881L23.9826 14.5538C24.1127 14.6345 24.2619 14.6796 24.415 14.6843C24.568 14.6891 24.7197 14.6535 24.8547 14.5811C26.5321 13.655 28.3446 12.9167 30.2235 12.3736C30.3728 12.3282 30.5072 12.2436 30.6126 12.1285C30.7181 12.0135 30.7908 11.8723 30.823 11.7196L33.0033 1.74512ZM37.5 20.9309C28.3591 20.9309 20.9302 28.3597 20.9302 37.5005C20.9302 46.6413 28.3591 54.07 37.5 54.07C46.6409 54.07 54.0698 46.6413 54.0698 37.5005C54.0698 28.3597 46.6409 20.9309 37.5 20.9309ZM37.5 22.6751C45.6983 22.6751 52.3256 29.3023 52.3256 37.5005C52.3256 45.6986 45.6983 52.3259 37.5 52.3259C29.3017 52.3259 22.6744 45.6986 22.6744 37.5005C22.6744 29.3023 29.3017 22.6751 37.5 22.6751Z" fill="#BEBEBE"/>
<path d="M32.1312 0.000958529C31.9632 0.0350341 31.8091 0.117825 31.6879 0.238993C31.5667 0.360161 31.4839 0.514337 31.4499 0.682272L29.2424 10.902C27.6005 11.4112 26.0255 12.0477 24.5276 12.8369L15.7522 7.19563C15.5854 7.0865 15.3862 7.03779 15.1879 7.05763C14.9895 7.07746 14.804 7.16464 14.6621 7.30464L7.30378 14.6628C7.16377 14.8047 7.07659 14.9903 7.05676 15.1886C7.03692 15.387 7.08563 15.5861 7.19477 15.7529L12.8361 24.5283C12.0469 26.0261 11.4104 27.6011 10.9012 29.243L0.681323 31.4504C0.489007 31.4935 0.316967 31.6005 0.193242 31.7539C0.0695169 31.9074 0.0014025 32.0982 0 32.2952V42.7057C0.0014025 42.9028 0.0695169 43.0936 0.193242 43.247C0.316967 43.4004 0.489007 43.5074 0.681323 43.5505L10.9012 45.758C11.4104 47.3999 12.0469 48.9748 12.8361 50.4727L7.19477 59.248C7.08563 59.4148 7.03692 59.614 7.05676 59.8123C7.07659 60.0107 7.16377 60.1962 7.30378 60.3381L14.6621 67.6963C14.804 67.8363 14.9895 67.9235 15.1879 67.9433C15.3862 67.9632 15.5854 67.9145 15.7522 67.8053L24.5276 62.164C26.0255 62.9532 27.6005 63.5898 29.2424 64.099L31.4499 74.3187C31.493 74.511 31.6 74.683 31.7534 74.8068C31.9068 74.9305 32.0976 74.9986 32.2947 75H42.7053C42.9024 74.9986 43.0932 74.9305 43.2466 74.8068C43.4 74.683 43.507 74.511 43.5501 74.3187L45.7576 64.099C47.3995 63.5898 48.9745 62.9532 50.4724 62.164L59.2478 67.8053C59.4146 67.9145 59.6138 67.9632 59.8121 67.9433C60.0105 67.9235 60.196 67.8363 60.3379 67.6963L67.6962 60.3381C67.8362 60.1962 67.9234 60.0107 67.9432 59.8123C67.9631 59.614 67.9144 59.4148 67.8052 59.248L62.1639 50.4727C62.9531 48.9748 63.5896 47.3999 64.0988 45.758L74.3187 43.5505C74.511 43.5074 74.683 43.4004 74.8068 43.247C74.9305 43.0936 74.9986 42.9028 75 42.7057V32.2952C74.9986 32.0982 74.9305 31.9074 74.8068 31.7539C74.683 31.6005 74.511 31.4935 74.3187 31.4504L64.0988 29.243C63.5896 27.6011 62.9531 26.0261 62.1639 24.5283L67.8052 15.7529C67.9144 15.5861 67.9631 15.387 67.9432 15.1886C67.9234 14.9903 67.8362 14.8047 67.6962 14.6628L60.3379 7.30464C60.196 7.16464 60.0105 7.07746 59.8121 7.05763C59.6138 7.03779 59.4146 7.0865 59.2478 7.19563L50.4724 12.8369C48.9745 12.0477 47.3995 11.4112 45.7576 10.902L43.5501 0.682272C43.507 0.489959 43.4 0.317921 43.2466 0.194198C43.0932 0.0704745 42.9024 0.00236101 42.7053 0.000958529H32.2947C32.2675 -0.00031951 32.2402 -0.00031951 32.2129 0.000958529C32.1857 -0.00031951 32.1584 -0.00031951 32.1312 0.000958529ZM33.0033 1.74512H41.9967L44.177 11.7196C44.2092 11.8723 44.2819 12.0135 44.3874 12.1285C44.4928 12.2436 44.6272 12.3282 44.7765 12.3736C46.6554 12.9167 48.4679 13.655 50.1453 14.5811C50.2803 14.6535 50.432 14.6891 50.585 14.6843C50.7381 14.6796 50.8873 14.6345 51.0174 14.5538L59.5749 9.04881L65.952 15.4259L60.4469 23.9832C60.3662 24.1134 60.3212 24.2625 60.3164 24.4156C60.3116 24.5687 60.3473 24.7203 60.4197 24.8553C61.3458 26.5327 62.0841 28.3452 62.6272 30.224C62.6726 30.3734 62.7572 30.5078 62.8723 30.6132C62.9873 30.7187 63.1286 30.7913 63.2812 30.8236L73.2558 33.0038V41.9972L63.2812 44.1774C63.1286 44.2096 62.9873 44.2823 62.8723 44.3877C62.7572 44.4932 62.6726 44.6276 62.6272 44.7769C62.0841 46.6557 61.3458 48.4683 60.4197 50.1457C60.3473 50.2806 60.3116 50.4323 60.3164 50.5854C60.3212 50.7384 60.3662 50.8876 60.4469 51.0177L65.952 59.5751L59.5749 65.9521L51.0174 60.4471C50.8873 60.3664 50.7381 60.3214 50.585 60.3166C50.432 60.3118 50.2803 60.3474 50.1453 60.4199C48.4679 61.346 46.6554 62.0843 44.7765 62.6273C44.6272 62.6727 44.4928 62.7574 44.3874 62.8724C44.2819 62.9875 44.2092 63.1287 44.177 63.2814L41.9967 73.2558H33.0033L30.823 63.2814C30.7908 63.1287 30.7181 62.9875 30.6126 62.8724C30.5072 62.7574 30.3728 62.6727 30.2235 62.6273C28.3446 62.0843 26.5321 61.346 24.8547 60.4199C24.7197 60.3474 24.568 60.3118 24.415 60.3166C24.2619 60.3214 24.1127 60.3664 23.9826 60.4471L15.4251 65.9521L9.04797 59.5751L14.5531 51.0177C14.6338 50.8876 14.6788 50.7384 14.6836 50.5854C14.6884 50.4323 14.6527 50.2806 14.5803 50.1457C13.6542 48.4683 12.9159 46.6557 12.3728 44.7769C12.3274 44.6276 12.2428 44.4932 12.1277 44.3877C12.0127 44.2823 11.8714 44.2096 11.7187 44.1774L1.74419 41.9972V33.0038L11.7187 30.8236C11.8714 30.7913 12.0127 30.7187 12.1277 30.6132C12.2428 30.5078 12.3274 30.3734 12.3728 30.224C12.9159 28.3452 13.6542 26.5327 14.5803 24.8553C14.6527 24.7203 14.6884 24.5687 14.6836 24.4156C14.6788 24.2625 14.6338 24.1134 14.5531 23.9832L9.04797 15.4259L15.4251 9.04881L23.9826 14.5538C24.1127 14.6345 24.2619 14.6796 24.415 14.6843C24.568 14.6891 24.7197 14.6535 24.8547 14.5811C26.5321 13.655 28.3446 12.9167 30.2235 12.3736C30.3728 12.3282 30.5072 12.2436 30.6126 12.1285C30.7181 12.0135 30.7908 11.8723 30.823 11.7196L33.0033 1.74512ZM37.5 20.9309C28.3591 20.9309 20.9302 28.3597 20.9302 37.5005C20.9302 46.6413 28.3591 54.07 37.5 54.07C46.6409 54.07 54.0698 46.6413 54.0698 37.5005C54.0698 28.3597 46.6409 20.9309 37.5 20.9309ZM37.5 22.6751C45.6983 22.6751 52.3256 29.3023 52.3256 37.5005C52.3256 45.6986 45.6983 52.3259 37.5 52.3259C29.3017 52.3259 22.6744 45.6986 22.6744 37.5005C22.6744 29.3023 29.3017 22.6751 37.5 22.6751Z" fill="#BEBEBE"/>
<path d="M32.1312 0.000958529C31.9632 0.0350341 31.8091 0.117825 31.6879 0.238993C31.5667 0.360161 31.4839 0.514337 31.4499 0.682272L29.2424 10.902C27.6005 11.4112 26.0255 12.0477 24.5276 12.8369L15.7522 7.19563C15.5854 7.0865 15.3862 7.03779 15.1879 7.05763C14.9895 7.07746 14.804 7.16464 14.6621 7.30464L7.30378 14.6628C7.16377 14.8047 7.07659 14.9903 7.05676 15.1886C7.03692 15.387 7.08563 15.5861 7.19477 15.7529L12.8361 24.5283C12.0469 26.0261 11.4104 27.6011 10.9012 29.243L0.681323 31.4504C0.489007 31.4935 0.316967 31.6005 0.193242 31.7539C0.0695169 31.9074 0.0014025 32.0982 0 32.2952V42.7057C0.0014025 42.9028 0.0695169 43.0936 0.193242 43.247C0.316967 43.4004 0.489007 43.5074 0.681323 43.5505L10.9012 45.758C11.4104 47.3999 12.0469 48.9748 12.8361 50.4727L7.19477 59.248C7.08563 59.4148 7.03692 59.614 7.05676 59.8123C7.07659 60.0107 7.16377 60.1962 7.30378 60.3381L14.6621 67.6963C14.804 67.8363 14.9895 67.9235 15.1879 67.9433C15.3862 67.9632 15.5854 67.9145 15.7522 67.8053L24.5276 62.164C26.0255 62.9532 27.6005 63.5898 29.2424 64.099L31.4499 74.3187C31.493 74.511 31.6 74.683 31.7534 74.8068C31.9068 74.9305 32.0976 74.9986 32.2947 75H42.7053C42.9024 74.9986 43.0932 74.9305 43.2466 74.8068C43.4 74.683 43.507 74.511 43.5501 74.3187L45.7576 64.099C47.3995 63.5898 48.9745 62.9532 50.4724 62.164L59.2478 67.8053C59.4146 67.9145 59.6138 67.9632 59.8121 67.9433C60.0105 67.9235 60.196 67.8363 60.3379 67.6963L67.6962 60.3381C67.8362 60.1962 67.9234 60.0107 67.9432 59.8123C67.9631 59.614 67.9144 59.4148 67.8052 59.248L62.1639 50.4727C62.9531 48.9748 63.5896 47.3999 64.0988 45.758L74.3187 43.5505C74.511 43.5074 74.683 43.4004 74.8068 43.247C74.9305 43.0936 74.9986 42.9028 75 42.7057V32.2952C74.9986 32.0982 74.9305 31.9074 74.8068 31.7539C74.683 31.6005 74.511 31.4935 74.3187 31.4504L64.0988 29.243C63.5896 27.6011 62.9531 26.0261 62.1639 24.5283L67.8052 15.7529C67.9144 15.5861 67.9631 15.387 67.9432 15.1886C67.9234 14.9903 67.8362 14.8047 67.6962 14.6628L60.3379 7.30464C60.196 7.16464 60.0105 7.07746 59.8121 7.05763C59.6138 7.03779 59.4146 7.0865 59.2478 7.19563L50.4724 12.8369C48.9745 12.0477 47.3995 11.4112 45.7576 10.902L43.5501 0.682272C43.507 0.489959 43.4 0.317921 43.2466 0.194198C43.0932 0.0704745 42.9024 0.00236101 42.7053 0.000958529H32.2947C32.2675 -0.00031951 32.2402 -0.00031951 32.2129 0.000958529C32.1857 -0.00031951 32.1584 -0.00031951 32.1312 0.000958529ZM33.0033 1.74512H41.9967L44.177 11.7196C44.2092 11.8723 44.2819 12.0135 44.3874 12.1285C44.4928 12.2436 44.6272 12.3282 44.7765 12.3736C46.6554 12.9167 48.4679 13.655 50.1453 14.5811C50.2803 14.6535 50.432 14.6891 50.585 14.6843C50.7381 14.6796 50.8873 14.6345 51.0174 14.5538L59.5749 9.04881L65.952 15.4259L60.4469 23.9832C60.3662 24.1134 60.3212 24.2625 60.3164 24.4156C60.3116 24.5687 60.3473 24.7203 60.4197 24.8553C61.3458 26.5327 62.0841 28.3452 62.6272 30.224C62.6726 30.3734 62.7572 30.5078 62.8723 30.6132C62.9873 30.7187 63.1286 30.7913 63.2812 30.8236L73.2558 33.0038V41.9972L63.2812 44.1774C63.1286 44.2096 62.9873 44.2823 62.8723 44.3877C62.7572 44.4932 62.6726 44.6276 62.6272 44.7769C62.0841 46.6557 61.3458 48.4683 60.4197 50.1457C60.3473 50.2806 60.3116 50.4323 60.3164 50.5854C60.3212 50.7384 60.3662 50.8876 60.4469 51.0177L65.952 59.5751L59.5749 65.9521L51.0174 60.4471C50.8873 60.3664 50.7381 60.3214 50.585 60.3166C50.432 60.3118 50.2803 60.3474 50.1453 60.4199C48.4679 61.346 46.6554 62.0843 44.7765 62.6273C44.6272 62.6727 44.4928 62.7574 44.3874 62.8724C44.2819 62.9875 44.2092 63.1287 44.177 63.2814L41.9967 73.2558H33.0033L30.823 63.2814C30.7908 63.1287 30.7181 62.9875 30.6126 62.8724C30.5072 62.7574 30.3728 62.6727 30.2235 62.6273C28.3446 62.0843 26.5321 61.346 24.8547 60.4199C24.7197 60.3474 24.568 60.3118 24.415 60.3166C24.2619 60.3214 24.1127 60.3664 23.9826 60.4471L15.4251 65.9521L9.04797 59.5751L14.5531 51.0177C14.6338 50.8876 14.6788 50.7384 14.6836 50.5854C14.6884 50.4323 14.6527 50.2806 14.5803 50.1457C13.6542 48.4683 12.9159 46.6557 12.3728 44.7769C12.3274 44.6276 12.2428 44.4932 12.1277 44.3877C12.0127 44.2823 11.8714 44.2096 11.7187 44.1774L1.74419 41.9972V33.0038L11.7187 30.8236C11.8714 30.7913 12.0127 30.7187 12.1277 30.6132C12.2428 30.5078 12.3274 30.3734 12.3728 30.224C12.9159 28.3452 13.6542 26.5327 14.5803 24.8553C14.6527 24.7203 14.6884 24.5687 14.6836 24.4156C14.6788 24.2625 14.6338 24.1134 14.5531 23.9832L9.04797 15.4259L15.4251 9.04881L23.9826 14.5538C24.1127 14.6345 24.2619 14.6796 24.415 14.6843C24.568 14.6891 24.7197 14.6535 24.8547 14.5811C26.5321 13.655 28.3446 12.9167 30.2235 12.3736C30.3728 12.3282 30.5072 12.2436 30.6126 12.1285C30.7181 12.0135 30.7908 11.8723 30.823 11.7196L33.0033 1.74512ZM37.5 20.9309C28.3591 20.9309 20.9302 28.3597 20.9302 37.5005C20.9302 46.6413 28.3591 54.07 37.5 54.07C46.6409 54.07 54.0698 46.6413 54.0698 37.5005C54.0698 28.3597 46.6409 20.9309 37.5 20.9309ZM37.5 22.6751C45.6983 22.6751 52.3256 29.3023 52.3256 37.5005C52.3256 45.6986 45.6983 52.3259 37.5 52.3259C29.3017 52.3259 22.6744 45.6986 22.6744 37.5005C22.6744 29.3023 29.3017 22.6751 37.5 22.6751Z" fill="#BEBEBE"/>
<path d="M32.1312 0.000958529C31.9632 0.0350341 31.8091 0.117825 31.6879 0.238993C31.5667 0.360161 31.4839 0.514337 31.4499 0.682272L29.2424 10.902C27.6005 11.4112 26.0255 12.0477 24.5276 12.8369L15.7522 7.19563C15.5854 7.0865 15.3862 7.03779 15.1879 7.05763C14.9895 7.07746 14.804 7.16464 14.6621 7.30464L7.30378 14.6628C7.16377 14.8047 7.07659 14.9903 7.05676 15.1886C7.03692 15.387 7.08563 15.5861 7.19477 15.7529L12.8361 24.5283C12.0469 26.0261 11.4104 27.6011 10.9012 29.243L0.681323 31.4504C0.489007 31.4935 0.316967 31.6005 0.193242 31.7539C0.0695169 31.9074 0.0014025 32.0982 0 32.2952V42.7057C0.0014025 42.9028 0.0695169 43.0936 0.193242 43.247C0.316967 43.4004 0.489007 43.5074 0.681323 43.5505L10.9012 45.758C11.4104 47.3999 12.0469 48.9748 12.8361 50.4727L7.19477 59.248C7.08563 59.4148 7.03692 59.614 7.05676 59.8123C7.07659 60.0107 7.16377 60.1962 7.30378 60.3381L14.6621 67.6963C14.804 67.8363 14.9895 67.9235 15.1879 67.9433C15.3862 67.9632 15.5854 67.9145 15.7522 67.8053L24.5276 62.164C26.0255 62.9532 27.6005 63.5898 29.2424 64.099L31.4499 74.3187C31.493 74.511 31.6 74.683 31.7534 74.8068C31.9068 74.9305 32.0976 74.9986 32.2947 75H42.7053C42.9024 74.9986 43.0932 74.9305 43.2466 74.8068C43.4 74.683 43.507 74.511 43.5501 74.3187L45.7576 64.099C47.3995 63.5898 48.9745 62.9532 50.4724 62.164L59.2478 67.8053C59.4146 67.9145 59.6138 67.9632 59.8121 67.9433C60.0105 67.9235 60.196 67.8363 60.3379 67.6963L67.6962 60.3381C67.8362 60.1962 67.9234 60.0107 67.9432 59.8123C67.9631 59.614 67.9144 59.4148 67.8052 59.248L62.1639 50.4727C62.9531 48.9748 63.5896 47.3999 64.0988 45.758L74.3187 43.5505C74.511 43.5074 74.683 43.4004 74.8068 43.247C74.9305 43.0936 74.9986 42.9028 75 42.7057V32.2952C74.9986 32.0982 74.9305 31.9074 74.8068 31.7539C74.683 31.6005 74.511 31.4935 74.3187 31.4504L64.0988 29.243C63.5896 27.6011 62.9531 26.0261 62.1639 24.5283L67.8052 15.7529C67.9144 15.5861 67.9631 15.387 67.9432 15.1886C67.9234 14.9903 67.8362 14.8047 67.6962 14.6628L60.3379 7.30464C60.196 7.16464 60.0105 7.07746 59.8121 7.05763C59.6138 7.03779 59.4146 7.0865 59.2478 7.19563L50.4724 12.8369C48.9745 12.0477 47.3995 11.4112 45.7576 10.902L43.5501 0.682272C43.507 0.489959 43.4 0.317921 43.2466 0.194198C43.0932 0.0704745 42.9024 0.00236101 42.7053 0.000958529H32.2947C32.2675 -0.00031951 32.2402 -0.00031951 32.2129 0.000958529C32.1857 -0.00031951 32.1584 -0.00031951 32.1312 0.000958529ZM33.0033 1.74512H41.9967L44.177 11.7196C44.2092 11.8723 44.2819 12.0135 44.3874 12.1285C44.4928 12.2436 44.6272 12.3282 44.7765 12.3736C46.6554 12.9167 48.4679 13.655 50.1453 14.5811C50.2803 14.6535 50.432 14.6891 50.585 14.6843C50.7381 14.6796 50.8873 14.6345 51.0174 14.5538L59.5749 9.04881L65.952 15.4259L60.4469 23.9832C60.3662 24.1134 60.3212 24.2625 60.3164 24.4156C60.3116 24.5687 60.3473 24.7203 60.4197 24.8553C61.3458 26.5327 62.0841 28.3452 62.6272 30.224C62.6726 30.3734 62.7572 30.5078 62.8723 30.6132C62.9873 30.7187 63.1286 30.7913 63.2812 30.8236L73.2558 33.0038V41.9972L63.2812 44.1774C63.1286 44.2096 62.9873 44.2823 62.8723 44.3877C62.7572 44.4932 62.6726 44.6276 62.6272 44.7769C62.0841 46.6557 61.3458 48.4683 60.4197 50.1457C60.3473 50.2806 60.3116 50.4323 60.3164 50.5854C60.3212 50.7384 60.3662 50.8876 60.4469 51.0177L65.952 59.5751L59.5749 65.9521L51.0174 60.4471C50.8873 60.3664 50.7381 60.3214 50.585 60.3166C50.432 60.3118 50.2803 60.3474 50.1453 60.4199C48.4679 61.346 46.6554 62.0843 44.7765 62.6273C44.6272 62.6727 44.4928 62.7574 44.3874 62.8724C44.2819 62.9875 44.2092 63.1287 44.177 63.2814L41.9967 73.2558H33.0033L30.823 63.2814C30.7908 63.1287 30.7181 62.9875 30.6126 62.8724C30.5072 62.7574 30.3728 62.6727 30.2235 62.6273C28.3446 62.0843 26.5321 61.346 24.8547 60.4199C24.7197 60.3474 24.568 60.3118 24.415 60.3166C24.2619 60.3214 24.1127 60.3664 23.9826 60.4471L15.4251 65.9521L9.04797 59.5751L14.5531 51.0177C14.6338 50.8876 14.6788 50.7384 14.6836 50.5854C14.6884 50.4323 14.6527 50.2806 14.5803 50.1457C13.6542 48.4683 12.9159 46.6557 12.3728 44.7769C12.3274 44.6276 12.2428 44.4932 12.1277 44.3877C12.0127 44.2823 11.8714 44.2096 11.7187 44.1774L1.74419 41.9972V33.0038L11.7187 30.8236C11.8714 30.7913 12.0127 30.7187 12.1277 30.6132C12.2428 30.5078 12.3274 30.3734 12.3728 30.224C12.9159 28.3452 13.6542 26.5327 14.5803 24.8553C14.6527 24.7203 14.6884 24.5687 14.6836 24.4156C14.6788 24.2625 14.6338 24.1134 14.5531 23.9832L9.04797 15.4259L15.4251 9.04881L23.9826 14.5538C24.1127 14.6345 24.2619 14.6796 24.415 14.6843C24.568 14.6891 24.7197 14.6535 24.8547 14.5811C26.5321 13.655 28.3446 12.9167 30.2235 12.3736C30.3728 12.3282 30.5072 12.2436 30.6126 12.1285C30.7181 12.0135 30.7908 11.8723 30.823 11.7196L33.0033 1.74512ZM37.5 20.9309C28.3591 20.9309 20.9302 28.3597 20.9302 37.5005C20.9302 46.6413 28.3591 54.07 37.5 54.07C46.6409 54.07 54.0698 46.6413 54.0698 37.5005C54.0698 28.3597 46.6409 20.9309 37.5 20.9309ZM37.5 22.6751C45.6983 22.6751 52.3256 29.3023 52.3256 37.5005C52.3256 45.6986 45.6983 52.3259 37.5 52.3259C29.3017 52.3259 22.6744 45.6986 22.6744 37.5005C22.6744 29.3023 29.3017 22.6751 37.5 22.6751Z" fill="#BEBEBE"/>
<path d="M32.1312 0.000958529C31.9632 0.0350341 31.8091 0.117825 31.6879 0.238993C31.5667 0.360161 31.4839 0.514337 31.4499 0.682272L29.2424 10.902C27.6005 11.4112 26.0255 12.0477 24.5276 12.8369L15.7522 7.19563C15.5854 7.0865 15.3862 7.03779 15.1879 7.05763C14.9895 7.07746 14.804 7.16464 14.6621 7.30464L7.30378 14.6628C7.16377 14.8047 7.07659 14.9903 7.05676 15.1886C7.03692 15.387 7.08563 15.5861 7.19477 15.7529L12.8361 24.5283C12.0469 26.0261 11.4104 27.6011 10.9012 29.243L0.681323 31.4504C0.489007 31.4935 0.316967 31.6005 0.193242 31.7539C0.0695169 31.9074 0.0014025 32.0982 0 32.2952V42.7057C0.0014025 42.9028 0.0695169 43.0936 0.193242 43.247C0.316967 43.4004 0.489007 43.5074 0.681323 43.5505L10.9012 45.758C11.4104 47.3999 12.0469 48.9748 12.8361 50.4727L7.19477 59.248C7.08563 59.4148 7.03692 59.614 7.05676 59.8123C7.07659 60.0107 7.16377 60.1962 7.30378 60.3381L14.6621 67.6963C14.804 67.8363 14.9895 67.9235 15.1879 67.9433C15.3862 67.9632 15.5854 67.9145 15.7522 67.8053L24.5276 62.164C26.0255 62.9532 27.6005 63.5898 29.2424 64.099L31.4499 74.3187C31.493 74.511 31.6 74.683 31.7534 74.8068C31.9068 74.9305 32.0976 74.9986 32.2947 75H42.7053C42.9024 74.9986 43.0932 74.9305 43.2466 74.8068C43.4 74.683 43.507 74.511 43.5501 74.3187L45.7576 64.099C47.3995 63.5898 48.9745 62.9532 50.4724 62.164L59.2478 67.8053C59.4146 67.9145 59.6138 67.9632 59.8121 67.9433C60.0105 67.9235 60.196 67.8363 60.3379 67.6963L67.6962 60.3381C67.8362 60.1962 67.9234 60.0107 67.9432 59.8123C67.9631 59.614 67.9144 59.4148 67.8052 59.248L62.1639 50.4727C62.9531 48.9748 63.5896 47.3999 64.0988 45.758L74.3187 43.5505C74.511 43.5074 74.683 43.4004 74.8068 43.247C74.9305 43.0936 74.9986 42.9028 75 42.7057V32.2952C74.9986 32.0982 74.9305 31.9074 74.8068 31.7539C74.683 31.6005 74.511 31.4935 74.3187 31.4504L64.0988 29.243C63.5896 27.6011 62.9531 26.0261 62.1639 24.5283L67.8052 15.7529C67.9144 15.5861 67.9631 15.387 67.9432 15.1886C67.9234 14.9903 67.8362 14.8047 67.6962 14.6628L60.3379 7.30464C60.196 7.16464 60.0105 7.07746 59.8121 7.05763C59.6138 7.03779 59.4146 7.0865 59.2478 7.19563L50.4724 12.8369C48.9745 12.0477 47.3995 11.4112 45.7576 10.902L43.5501 0.682272C43.507 0.489959 43.4 0.317921 43.2466 0.194198C43.0932 0.0704745 42.9024 0.00236101 42.7053 0.000958529H32.2947C32.2675 -0.00031951 32.2402 -0.00031951 32.2129 0.000958529C32.1857 -0.00031951 32.1584 -0.00031951 32.1312 0.000958529ZM33.0033 1.74512H41.9967L44.177 11.7196C44.2092 11.8723 44.2819 12.0135 44.3874 12.1285C44.4928 12.2436 44.6272 12.3282 44.7765 12.3736C46.6554 12.9167 48.4679 13.655 50.1453 14.5811C50.2803 14.6535 50.432 14.6891 50.585 14.6843C50.7381 14.6796 50.8873 14.6345 51.0174 14.5538L59.5749 9.04881L65.952 15.4259L60.4469 23.9832C60.3662 24.1134 60.3212 24.2625 60.3164 24.4156C60.3116 24.5687 60.3473 24.7203 60.4197 24.8553C61.3458 26.5327 62.0841 28.3452 62.6272 30.224C62.6726 30.3734 62.7572 30.5078 62.8723 30.6132C62.9873 30.7187 63.1286 30.7913 63.2812 30.8236L73.2558 33.0038V41.9972L63.2812 44.1774C63.1286 44.2096 62.9873 44.2823 62.8723 44.3877C62.7572 44.4932 62.6726 44.6276 62.6272 44.7769C62.0841 46.6557 61.3458 48.4683 60.4197 50.1457C60.3473 50.2806 60.3116 50.4323 60.3164 50.5854C60.3212 50.7384 60.3662 50.8876 60.4469 51.0177L65.952 59.5751L59.5749 65.9521L51.0174 60.4471C50.8873 60.3664 50.7381 60.3214 50.585 60.3166C50.432 60.3118 50.2803 60.3474 50.1453 60.4199C48.4679 61.346 46.6554 62.0843 44.7765 62.6273C44.6272 62.6727 44.4928 62.7574 44.3874 62.8724C44.2819 62.9875 44.2092 63.1287 44.177 63.2814L41.9967 73.2558H33.0033L30.823 63.2814C30.7908 63.1287 30.7181 62.9875 30.6126 62.8724C30.5072 62.7574 30.3728 62.6727 30.2235 62.6273C28.3446 62.0843 26.5321 61.346 24.8547 60.4199C24.7197 60.3474 24.568 60.3118 24.415 60.3166C24.2619 60.3214 24.1127 60.3664 23.9826 60.4471L15.4251 65.9521L9.04797 59.5751L14.5531 51.0177C14.6338 50.8876 14.6788 50.7384 14.6836 50.5854C14.6884 50.4323 14.6527 50.2806 14.5803 50.1457C13.6542 48.4683 12.9159 46.6557 12.3728 44.7769C12.3274 44.6276 12.2428 44.4932 12.1277 44.3877C12.0127 44.2823 11.8714 44.2096 11.7187 44.1774L1.74419 41.9972V33.0038L11.7187 30.8236C11.8714 30.7913 12.0127 30.7187 12.1277 30.6132C12.2428 30.5078 12.3274 30.3734 12.3728 30.224C12.9159 28.3452 13.6542 26.5327 14.5803 24.8553C14.6527 24.7203 14.6884 24.5687 14.6836 24.4156C14.6788 24.2625 14.6338 24.1134 14.5531 23.9832L9.04797 15.4259L15.4251 9.04881L23.9826 14.5538C24.1127 14.6345 24.2619 14.6796 24.415 14.6843C24.568 14.6891 24.7197 14.6535 24.8547 14.5811C26.5321 13.655 28.3446 12.9167 30.2235 12.3736C30.3728 12.3282 30.5072 12.2436 30.6126 12.1285C30.7181 12.0135 30.7908 11.8723 30.823 11.7196L33.0033 1.74512ZM37.5 20.9309C28.3591 20.9309 20.9302 28.3597 20.9302 37.5005C20.9302 46.6413 28.3591 54.07 37.5 54.07C46.6409 54.07 54.0698 46.6413 54.0698 37.5005C54.0698 28.3597 46.6409 20.9309 37.5 20.9309ZM37.5 22.6751C45.6983 22.6751 52.3256 29.3023 52.3256 37.5005C52.3256 45.6986 45.6983 52.3259 37.5 52.3259C29.3017 52.3259 22.6744 45.6986 22.6744 37.5005C22.6744 29.3023 29.3017 22.6751 37.5 22.6751Z" fill="#BEBEBE"/>
<path d="M32.1312 0.000958529C31.9632 0.0350341 31.8091 0.117825 31.6879 0.238993C31.5667 0.360161 31.4839 0.514337 31.4499 0.682272L29.2424 10.902C27.6005 11.4112 26.0255 12.0477 24.5276 12.8369L15.7522 7.19563C15.5854 7.0865 15.3862 7.03779 15.1879 7.05763C14.9895 7.07746 14.804 7.16464 14.6621 7.30464L7.30378 14.6628C7.16377 14.8047 7.07659 14.9903 7.05676 15.1886C7.03692 15.387 7.08563 15.5861 7.19477 15.7529L12.8361 24.5283C12.0469 26.0261 11.4104 27.6011 10.9012 29.243L0.681323 31.4504C0.489007 31.4935 0.316967 31.6005 0.193242 31.7539C0.0695169 31.9074 0.0014025 32.0982 0 32.2952V42.7057C0.0014025 42.9028 0.0695169 43.0936 0.193242 43.247C0.316967 43.4004 0.489007 43.5074 0.681323 43.5505L10.9012 45.758C11.4104 47.3999 12.0469 48.9748 12.8361 50.4727L7.19477 59.248C7.08563 59.4148 7.03692 59.614 7.05676 59.8123C7.07659 60.0107 7.16377 60.1962 7.30378 60.3381L14.6621 67.6963C14.804 67.8363 14.9895 67.9235 15.1879 67.9433C15.3862 67.9632 15.5854 67.9145 15.7522 67.8053L24.5276 62.164C26.0255 62.9532 27.6005 63.5898 29.2424 64.099L31.4499 74.3187C31.493 74.511 31.6 74.683 31.7534 74.8068C31.9068 74.9305 32.0976 74.9986 32.2947 75H42.7053C42.9024 74.9986 43.0932 74.9305 43.2466 74.8068C43.4 74.683 43.507 74.511 43.5501 74.3187L45.7576 64.099C47.3995 63.5898 48.9745 62.9532 50.4724 62.164L59.2478 67.8053C59.4146 67.9145 59.6138 67.9632 59.8121 67.9433C60.0105 67.9235 60.196 67.8363 60.3379 67.6963L67.6962 60.3381C67.8362 60.1962 67.9234 60.0107 67.9432 59.8123C67.9631 59.614 67.9144 59.4148 67.8052 59.248L62.1639 50.4727C62.9531 48.9748 63.5896 47.3999 64.0988 45.758L74.3187 43.5505C74.511 43.5074 74.683 43.4004 74.8068 43.247C74.9305 43.0936 74.9986 42.9028 75 42.7057V32.2952C74.9986 32.0982 74.9305 31.9074 74.8068 31.7539C74.683 31.6005 74.511 31.4935 74.3187 31.4504L64.0988 29.243C63.5896 27.6011 62.9531 26.0261 62.1639 24.5283L67.8052 15.7529C67.9144 15.5861 67.9631 15.387 67.9432 15.1886C67.9234 14.9903 67.8362 14.8047 67.6962 14.6628L60.3379 7.30464C60.196 7.16464 60.0105 7.07746 59.8121 7.05763C59.6138 7.03779 59.4146 7.0865 59.2478 7.19563L50.4724 12.8369C48.9745 12.0477 47.3995 11.4112 45.7576 10.902L43.5501 0.682272C43.507 0.489959 43.4 0.317921 43.2466 0.194198C43.0932 0.0704745 42.9024 0.00236101 42.7053 0.000958529H32.2947C32.2675 -0.00031951 32.2402 -0.00031951 32.2129 0.000958529C32.1857 -0.00031951 32.1584 -0.00031951 32.1312 0.000958529ZM33.0033 1.74512H41.9967L44.177 11.7196C44.2092 11.8723 44.2819 12.0135 44.3874 12.1285C44.4928 12.2436 44.6272 12.3282 44.7765 12.3736C46.6554 12.9167 48.4679 13.655 50.1453 14.5811C50.2803 14.6535 50.432 14.6891 50.585 14.6843C50.7381 14.6796 50.8873 14.6345 51.0174 14.5538L59.5749 9.04881L65.952 15.4259L60.4469 23.9832C60.3662 24.1134 60.3212 24.2625 60.3164 24.4156C60.3116 24.5687 60.3473 24.7203 60.4197 24.8553C61.3458 26.5327 62.0841 28.3452 62.6272 30.224C62.6726 30.3734 62.7572 30.5078 62.8723 30.6132C62.9873 30.7187 63.1286 30.7913 63.2812 30.8236L73.2558 33.0038V41.9972L63.2812 44.1774C63.1286 44.2096 62.9873 44.2823 62.8723 44.3877C62.7572 44.4932 62.6726 44.6276 62.6272 44.7769C62.0841 46.6557 61.3458 48.4683 60.4197 50.1457C60.3473 50.2806 60.3116 50.4323 60.3164 50.5854C60.3212 50.7384 60.3662 50.8876 60.4469 51.0177L65.952 59.5751L59.5749 65.9521L51.0174 60.4471C50.8873 60.3664 50.7381 60.3214 50.585 60.3166C50.432 60.3118 50.2803 60.3474 50.1453 60.4199C48.4679 61.346 46.6554 62.0843 44.7765 62.6273C44.6272 62.6727 44.4928 62.7574 44.3874 62.8724C44.2819 62.9875 44.2092 63.1287 44.177 63.2814L41.9967 73.2558H33.0033L30.823 63.2814C30.7908 63.1287 30.7181 62.9875 30.6126 62.8724C30.5072 62.7574 30.3728 62.6727 30.2235 62.6273C28.3446 62.0843 26.5321 61.346 24.8547 60.4199C24.7197 60.3474 24.568 60.3118 24.415 60.3166C24.2619 60.3214 24.1127 60.3664 23.9826 60.4471L15.4251 65.9521L9.04797 59.5751L14.5531 51.0177C14.6338 50.8876 14.6788 50.7384 14.6836 50.5854C14.6884 50.4323 14.6527 50.2806 14.5803 50.1457C13.6542 48.4683 12.9159 46.6557 12.3728 44.7769C12.3274 44.6276 12.2428 44.4932 12.1277 44.3877C12.0127 44.2823 11.8714 44.2096 11.7187 44.1774L1.74419 41.9972V33.0038L11.7187 30.8236C11.8714 30.7913 12.0127 30.7187 12.1277 30.6132C12.2428 30.5078 12.3274 30.3734 12.3728 30.224C12.9159 28.3452 13.6542 26.5327 14.5803 24.8553C14.6527 24.7203 14.6884 24.5687 14.6836 24.4156C14.6788 24.2625 14.6338 24.1134 14.5531 23.9832L9.04797 15.4259L15.4251 9.04881L23.9826 14.5538C24.1127 14.6345 24.2619 14.6796 24.415 14.6843C24.568 14.6891 24.7197 14.6535 24.8547 14.5811C26.5321 13.655 28.3446 12.9167 30.2235 12.3736C30.3728 12.3282 30.5072 12.2436 30.6126 12.1285C30.7181 12.0135 30.7908 11.8723 30.823 11.7196L33.0033 1.74512ZM37.5 20.9309C28.3591 20.9309 20.9302 28.3597 20.9302 37.5005C20.9302 46.6413 28.3591 54.07 37.5 54.07C46.6409 54.07 54.0698 46.6413 54.0698 37.5005C54.0698 28.3597 46.6409 20.9309 37.5 20.9309ZM37.5 22.6751C45.6983 22.6751 52.3256 29.3023 52.3256 37.5005C52.3256 45.6986 45.6983 52.3259 37.5 52.3259C29.3017 52.3259 22.6744 45.6986 22.6744 37.5005C22.6744 29.3023 29.3017 22.6751 37.5 22.6751Z" fill="#BEBEBE"/>
<path d="M32.1312 0.000958529C31.9632 0.0350341 31.8091 0.117825 31.6879 0.238993C31.5667 0.360161 31.4839 0.514337 31.4499 0.682272L29.2424 10.902C27.6005 11.4112 26.0255 12.0477 24.5276 12.8369L15.7522 7.19563C15.5854 7.0865 15.3862 7.03779 15.1879 7.05763C14.9895 7.07746 14.804 7.16464 14.6621 7.30464L7.30378 14.6628C7.16377 14.8047 7.07659 14.9903 7.05676 15.1886C7.03692 15.387 7.08563 15.5861 7.19477 15.7529L12.8361 24.5283C12.0469 26.0261 11.4104 27.6011 10.9012 29.243L0.681323 31.4504C0.489007 31.4935 0.316967 31.6005 0.193242 31.7539C0.0695169 31.9074 0.0014025 32.0982 0 32.2952V42.7057C0.0014025 42.9028 0.0695169 43.0936 0.193242 43.247C0.316967 43.4004 0.489007 43.5074 0.681323 43.5505L10.9012 45.758C11.4104 47.3999 12.0469 48.9748 12.8361 50.4727L7.19477 59.248C7.08563 59.4148 7.03692 59.614 7.05676 59.8123C7.07659 60.0107 7.16377 60.1962 7.30378 60.3381L14.6621 67.6963C14.804 67.8363 14.9895 67.9235 15.1879 67.9433C15.3862 67.9632 15.5854 67.9145 15.7522 67.8053L24.5276 62.164C26.0255 62.9532 27.6005 63.5898 29.2424 64.099L31.4499 74.3187C31.493 74.511 31.6 74.683 31.7534 74.8068C31.9068 74.9305 32.0976 74.9986 32.2947 75H42.7053C42.9024 74.9986 43.0932 74.9305 43.2466 74.8068C43.4 74.683 43.507 74.511 43.5501 74.3187L45.7576 64.099C47.3995 63.5898 48.9745 62.9532 50.4724 62.164L59.2478 67.8053C59.4146 67.9145 59.6138 67.9632 59.8121 67.9433C60.0105 67.9235 60.196 67.8363 60.3379 67.6963L67.6962 60.3381C67.8362 60.1962 67.9234 60.0107 67.9432 59.8123C67.9631 59.614 67.9144 59.4148 67.8052 59.248L62.1639 50.4727C62.9531 48.9748 63.5896 47.3999 64.0988 45.758L74.3187 43.5505C74.511 43.5074 74.683 43.4004 74.8068 43.247C74.9305 43.0936 74.9986 42.9028 75 42.7057V32.2952C74.9986 32.0982 74.9305 31.9074 74.8068 31.7539C74.683 31.6005 74.511 31.4935 74.3187 31.4504L64.0988 29.243C63.5896 27.6011 62.9531 26.0261 62.1639 24.5283L67.8052 15.7529C67.9144 15.5861 67.9631 15.387 67.9432 15.1886C67.9234 14.9903 67.8362 14.8047 67.6962 14.6628L60.3379 7.30464C60.196 7.16464 60.0105 7.07746 59.8121 7.05763C59.6138 7.03779 59.4146 7.0865 59.2478 7.19563L50.4724 12.8369C48.9745 12.0477 47.3995 11.4112 45.7576 10.902L43.5501 0.682272C43.507 0.489959 43.4 0.317921 43.2466 0.194198C43.0932 0.0704745 42.9024 0.00236101 42.7053 0.000958529H32.2947C32.2675 -0.00031951 32.2402 -0.00031951 32.2129 0.000958529C32.1857 -0.00031951 32.1584 -0.00031951 32.1312 0.000958529ZM33.0033 1.74512H41.9967L44.177 11.7196C44.2092 11.8723 44.2819 12.0135 44.3874 12.1285C44.4928 12.2436 44.6272 12.3282 44.7765 12.3736C46.6554 12.9167 48.4679 13.655 50.1453 14.5811C50.2803 14.6535 50.432 14.6891 50.585 14.6843C50.7381 14.6796 50.8873 14.6345 51.0174 14.5538L59.5749 9.04881L65.952 15.4259L60.4469 23.9832C60.3662 24.1134 60.3212 24.2625 60.3164 24.4156C60.3116 24.5687 60.3473 24.7203 60.4197 24.8553C61.3458 26.5327 62.0841 28.3452 62.6272 30.224C62.6726 30.3734 62.7572 30.5078 62.8723 30.6132C62.9873 30.7187 63.1286 30.7913 63.2812 30.8236L73.2558 33.0038V41.9972L63.2812 44.1774C63.1286 44.2096 62.9873 44.2823 62.8723 44.3877C62.7572 44.4932 62.6726 44.6276 62.6272 44.7769C62.0841 46.6557 61.3458 48.4683 60.4197 50.1457C60.3473 50.2806 60.3116 50.4323 60.3164 50.5854C60.3212 50.7384 60.3662 50.8876 60.4469 51.0177L65.952 59.5751L59.5749 65.9521L51.0174 60.4471C50.8873 60.3664 50.7381 60.3214 50.585 60.3166C50.432 60.3118 50.2803 60.3474 50.1453 60.4199C48.4679 61.346 46.6554 62.0843 44.7765 62.6273C44.6272 62.6727 44.4928 62.7574 44.3874 62.8724C44.2819 62.9875 44.2092 63.1287 44.177 63.2814L41.9967 73.2558H33.0033L30.823 63.2814C30.7908 63.1287 30.7181 62.9875 30.6126 62.8724C30.5072 62.7574 30.3728 62.6727 30.2235 62.6273C28.3446 62.0843 26.5321 61.346 24.8547 60.4199C24.7197 60.3474 24.568 60.3118 24.415 60.3166C24.2619 60.3214 24.1127 60.3664 23.9826 60.4471L15.4251 65.9521L9.04797 59.5751L14.5531 51.0177C14.6338 50.8876 14.6788 50.7384 14.6836 50.5854C14.6884 50.4323 14.6527 50.2806 14.5803 50.1457C13.6542 48.4683 12.9159 46.6557 12.3728 44.7769C12.3274 44.6276 12.2428 44.4932 12.1277 44.3877C12.0127 44.2823 11.8714 44.2096 11.7187 44.1774L1.74419 41.9972V33.0038L11.7187 30.8236C11.8714 30.7913 12.0127 30.7187 12.1277 30.6132C12.2428 30.5078 12.3274 30.3734 12.3728 30.224C12.9159 28.3452 13.6542 26.5327 14.5803 24.8553C14.6527 24.7203 14.6884 24.5687 14.6836 24.4156C14.6788 24.2625 14.6338 24.1134 14.5531 23.9832L9.04797 15.4259L15.4251 9.04881L23.9826 14.5538C24.1127 14.6345 24.2619 14.6796 24.415 14.6843C24.568 14.6891 24.7197 14.6535 24.8547 14.5811C26.5321 13.655 28.3446 12.9167 30.2235 12.3736C30.3728 12.3282 30.5072 12.2436 30.6126 12.1285C30.7181 12.0135 30.7908 11.8723 30.823 11.7196L33.0033 1.74512ZM37.5 20.9309C28.3591 20.9309 20.9302 28.3597 20.9302 37.5005C20.9302 46.6413 28.3591 54.07 37.5 54.07C46.6409 54.07 54.0698 46.6413 54.0698 37.5005C54.0698 28.3597 46.6409 20.9309 37.5 20.9309ZM37.5 22.6751C45.6983 22.6751 52.3256 29.3023 52.3256 37.5005C52.3256 45.6986 45.6983 52.3259 37.5 52.3259C29.3017 52.3259 22.6744 45.6986 22.6744 37.5005C22.6744 29.3023 29.3017 22.6751 37.5 22.6751Z" fill="#BEBEBE"/>
<path d="M32.1312 0.000958529C31.9632 0.0350341 31.8091 0.117825 31.6879 0.238993C31.5667 0.360161 31.4839 0.514337 31.4499 0.682272L29.2424 10.902C27.6005 11.4112 26.0255 12.0477 24.5276 12.8369L15.7522 7.19563C15.5854 7.0865 15.3862 7.03779 15.1879 7.05763C14.9895 7.07746 14.804 7.16464 14.6621 7.30464L7.30378 14.6628C7.16377 14.8047 7.07659 14.9903 7.05676 15.1886C7.03692 15.387 7.08563 15.5861 7.19477 15.7529L12.8361 24.5283C12.0469 26.0261 11.4104 27.6011 10.9012 29.243L0.681323 31.4504C0.489007 31.4935 0.316967 31.6005 0.193242 31.7539C0.0695169 31.9074 0.0014025 32.0982 0 32.2952V42.7057C0.0014025 42.9028 0.0695169 43.0936 0.193242 43.247C0.316967 43.4004 0.489007 43.5074 0.681323 43.5505L10.9012 45.758C11.4104 47.3999 12.0469 48.9748 12.8361 50.4727L7.19477 59.248C7.08563 59.4148 7.03692 59.614 7.05676 59.8123C7.07659 60.0107 7.16377 60.1962 7.30378 60.3381L14.6621 67.6963C14.804 67.8363 14.9895 67.9235 15.1879 67.9433C15.3862 67.9632 15.5854 67.9145 15.7522 67.8053L24.5276 62.164C26.0255 62.9532 27.6005 63.5898 29.2424 64.099L31.4499 74.3187C31.493 74.511 31.6 74.683 31.7534 74.8068C31.9068 74.9305 32.0976 74.9986 32.2947 75H42.7053C42.9024 74.9986 43.0932 74.9305 43.2466 74.8068C43.4 74.683 43.507 74.511 43.5501 74.3187L45.7576 64.099C47.3995 63.5898 48.9745 62.9532 50.4724 62.164L59.2478 67.8053C59.4146 67.9145 59.6138 67.9632 59.8121 67.9433C60.0105 67.9235 60.196 67.8363 60.3379 67.6963L67.6962 60.3381C67.8362 60.1962 67.9234 60.0107 67.9432 59.8123C67.9631 59.614 67.9144 59.4148 67.8052 59.248L62.1639 50.4727C62.9531 48.9748 63.5896 47.3999 64.0988 45.758L74.3187 43.5505C74.511 43.5074 74.683 43.4004 74.8068 43.247C74.9305 43.0936 74.9986 42.9028 75 42.7057V32.2952C74.9986 32.0982 74.9305 31.9074 74.8068 31.7539C74.683 31.6005 74.511 31.4935 74.3187 31.4504L64.0988 29.243C63.5896 27.6011 62.9531 26.0261 62.1639 24.5283L67.8052 15.7529C67.9144 15.5861 67.9631 15.387 67.9432 15.1886C67.9234 14.9903 67.8362 14.8047 67.6962 14.6628L60.3379 7.30464C60.196 7.16464 60.0105 7.07746 59.8121 7.05763C59.6138 7.03779 59.4146 7.0865 59.2478 7.19563L50.4724 12.8369C48.9745 12.0477 47.3995 11.4112 45.7576 10.902L43.5501 0.682272C43.507 0.489959 43.4 0.317921 43.2466 0.194198C43.0932 0.0704745 42.9024 0.00236101 42.7053 0.000958529H32.2947C32.2675 -0.00031951 32.2402 -0.00031951 32.2129 0.000958529C32.1857 -0.00031951 32.1584 -0.00031951 32.1312 0.000958529ZM33.0033 1.74512H41.9967L44.177 11.7196C44.2092 11.8723 44.2819 12.0135 44.3874 12.1285C44.4928 12.2436 44.6272 12.3282 44.7765 12.3736C46.6554 12.9167 48.4679 13.655 50.1453 14.5811C50.2803 14.6535 50.432 14.6891 50.585 14.6843C50.7381 14.6796 50.8873 14.6345 51.0174 14.5538L59.5749 9.04881L65.952 15.4259L60.4469 23.9832C60.3662 24.1134 60.3212 24.2625 60.3164 24.4156C60.3116 24.5687 60.3473 24.7203 60.4197 24.8553C61.3458 26.5327 62.0841 28.3452 62.6272 30.224C62.6726 30.3734 62.7572 30.5078 62.8723 30.6132C62.9873 30.7187 63.1286 30.7913 63.2812 30.8236L73.2558 33.0038V41.9972L63.2812 44.1774C63.1286 44.2096 62.9873 44.2823 62.8723 44.3877C62.7572 44.4932 62.6726 44.6276 62.6272 44.7769C62.0841 46.6557 61.3458 48.4683 60.4197 50.1457C60.3473 50.2806 60.3116 50.4323 60.3164 50.5854C60.3212 50.7384 60.3662 50.8876 60.4469 51.0177L65.952 59.5751L59.5749 65.9521L51.0174 60.4471C50.8873 60.3664 50.7381 60.3214 50.585 60.3166C50.432 60.3118 50.2803 60.3474 50.1453 60.4199C48.4679 61.346 46.6554 62.0843 44.7765 62.6273C44.6272 62.6727 44.4928 62.7574 44.3874 62.8724C44.2819 62.9875 44.2092 63.1287 44.177 63.2814L41.9967 73.2558H33.0033L30.823 63.2814C30.7908 63.1287 30.7181 62.9875 30.6126 62.8724C30.5072 62.7574 30.3728 62.6727 30.2235 62.6273C28.3446 62.0843 26.5321 61.346 24.8547 60.4199C24.7197 60.3474 24.568 60.3118 24.415 60.3166C24.2619 60.3214 24.1127 60.3664 23.9826 60.4471L15.4251 65.9521L9.04797 59.5751L14.5531 51.0177C14.6338 50.8876 14.6788 50.7384 14.6836 50.5854C14.6884 50.4323 14.6527 50.2806 14.5803 50.1457C13.6542 48.4683 12.9159 46.6557 12.3728 44.7769C12.3274 44.6276 12.2428 44.4932 12.1277 44.3877C12.0127 44.2823 11.8714 44.2096 11.7187 44.1774L1.74419 41.9972V33.0038L11.7187 30.8236C11.8714 30.7913 12.0127 30.7187 12.1277 30.6132C12.2428 30.5078 12.3274 30.3734 12.3728 30.224C12.9159 28.3452 13.6542 26.5327 14.5803 24.8553C14.6527 24.7203 14.6884 24.5687 14.6836 24.4156C14.6788 24.2625 14.6338 24.1134 14.5531 23.9832L9.04797 15.4259L15.4251 9.04881L23.9826 14.5538C24.1127 14.6345 24.2619 14.6796 24.415 14.6843C24.568 14.6891 24.7197 14.6535 24.8547 14.5811C26.5321 13.655 28.3446 12.9167 30.2235 12.3736C30.3728 12.3282 30.5072 12.2436 30.6126 12.1285C30.7181 12.0135 30.7908 11.8723 30.823 11.7196L33.0033 1.74512ZM37.5 20.9309C28.3591 20.9309 20.9302 28.3597 20.9302 37.5005C20.9302 46.6413 28.3591 54.07 37.5 54.07C46.6409 54.07 54.0698 46.6413 54.0698 37.5005C54.0698 28.3597 46.6409 20.9309 37.5 20.9309ZM37.5 22.6751C45.6983 22.6751 52.3256 29.3023 52.3256 37.5005C52.3256 45.6986 45.6983 52.3259 37.5 52.3259C29.3017 52.3259 22.6744 45.6986 22.6744 37.5005C22.6744 29.3023 29.3017 22.6751 37.5 22.6751Z" fill="#BEBEBE"/>
<path d="M32.1312 0.000958529C31.9632 0.0350341 31.8091 0.117825 31.6879 0.238993C31.5667 0.360161 31.4839 0.514337 31.4499 0.682272L29.2424 10.902C27.6005 11.4112 26.0255 12.0477 24.5276 12.8369L15.7522 7.19563C15.5854 7.0865 15.3862 7.03779 15.1879 7.05763C14.9895 7.07746 14.804 7.16464 14.6621 7.30464L7.30378 14.6628C7.16377 14.8047 7.07659 14.9903 7.05676 15.1886C7.03692 15.387 7.08563 15.5861 7.19477 15.7529L12.8361 24.5283C12.0469 26.0261 11.4104 27.6011 10.9012 29.243L0.681323 31.4504C0.489007 31.4935 0.316967 31.6005 0.193242 31.7539C0.0695169 31.9074 0.0014025 32.0982 0 32.2952V42.7057C0.0014025 42.9028 0.0695169 43.0936 0.193242 43.247C0.316967 43.4004 0.489007 43.5074 0.681323 43.5505L10.9012 45.758C11.4104 47.3999 12.0469 48.9748 12.8361 50.4727L7.19477 59.248C7.08563 59.4148 7.03692 59.614 7.05676 59.8123C7.07659 60.0107 7.16377 60.1962 7.30378 60.3381L14.6621 67.6963C14.804 67.8363 14.9895 67.9235 15.1879 67.9433C15.3862 67.9632 15.5854 67.9145 15.7522 67.8053L24.5276 62.164C26.0255 62.9532 27.6005 63.5898 29.2424 64.099L31.4499 74.3187C31.493 74.511 31.6 74.683 31.7534 74.8068C31.9068 74.9305 32.0976 74.9986 32.2947 75H42.7053C42.9024 74.9986 43.0932 74.9305 43.2466 74.8068C43.4 74.683 43.507 74.511 43.5501 74.3187L45.7576 64.099C47.3995 63.5898 48.9745 62.9532 50.4724 62.164L59.2478 67.8053C59.4146 67.9145 59.6138 67.9632 59.8121 67.9433C60.0105 67.9235 60.196 67.8363 60.3379 67.6963L67.6962 60.3381C67.8362 60.1962 67.9234 60.0107 67.9432 59.8123C67.9631 59.614 67.9144 59.4148 67.8052 59.248L62.1639 50.4727C62.9531 48.9748 63.5896 47.3999 64.0988 45.758L74.3187 43.5505C74.511 43.5074 74.683 43.4004 74.8068 43.247C74.9305 43.0936 74.9986 42.9028 75 42.7057V32.2952C74.9986 32.0982 74.9305 31.9074 74.8068 31.7539C74.683 31.6005 74.511 31.4935 74.3187 31.4504L64.0988 29.243C63.5896 27.6011 62.9531 26.0261 62.1639 24.5283L67.8052 15.7529C67.9144 15.5861 67.9631 15.387 67.9432 15.1886C67.9234 14.9903 67.8362 14.8047 67.6962 14.6628L60.3379 7.30464C60.196 7.16464 60.0105 7.07746 59.8121 7.05763C59.6138 7.03779 59.4146 7.0865 59.2478 7.19563L50.4724 12.8369C48.9745 12.0477 47.3995 11.4112 45.7576 10.902L43.5501 0.682272C43.507 0.489959 43.4 0.317921 43.2466 0.194198C43.0932 0.0704745 42.9024 0.00236101 42.7053 0.000958529H32.2947C32.2675 -0.00031951 32.2402 -0.00031951 32.2129 0.000958529C32.1857 -0.00031951 32.1584 -0.00031951 32.1312 0.000958529ZM33.0033 1.74512H41.9967L44.177 11.7196C44.2092 11.8723 44.2819 12.0135 44.3874 12.1285C44.4928 12.2436 44.6272 12.3282 44.7765 12.3736C46.6554 12.9167 48.4679 13.655 50.1453 14.5811C50.2803 14.6535 50.432 14.6891 50.585 14.6843C50.7381 14.6796 50.8873 14.6345 51.0174 14.5538L59.5749 9.04881L65.952 15.4259L60.4469 23.9832C60.3662 24.1134 60.3212 24.2625 60.3164 24.4156C60.3116 24.5687 60.3473 24.7203 60.4197 24.8553C61.3458 26.5327 62.0841 28.3452 62.6272 30.224C62.6726 30.3734 62.7572 30.5078 62.8723 30.6132C62.9873 30.7187 63.1286 30.7913 63.2812 30.8236L73.2558 33.0038V41.9972L63.2812 44.1774C63.1286 44.2096 62.9873 44.2823 62.8723 44.3877C62.7572 44.4932 62.6726 44.6276 62.6272 44.7769C62.0841 46.6557 61.3458 48.4683 60.4197 50.1457C60.3473 50.2806 60.3116 50.4323 60.3164 50.5854C60.3212 50.7384 60.3662 50.8876 60.4469 51.0177L65.952 59.5751L59.5749 65.9521L51.0174 60.4471C50.8873 60.3664 50.7381 60.3214 50.585 60.3166C50.432 60.3118 50.2803 60.3474 50.1453 60.4199C48.4679 61.346 46.6554 62.0843 44.7765 62.6273C44.6272 62.6727 44.4928 62.7574 44.3874 62.8724C44.2819 62.9875 44.2092 63.1287 44.177 63.2814L41.9967 73.2558H33.0033L30.823 63.2814C30.7908 63.1287 30.7181 62.9875 30.6126 62.8724C30.5072 62.7574 30.3728 62.6727 30.2235 62.6273C28.3446 62.0843 26.5321 61.346 24.8547 60.4199C24.7197 60.3474 24.568 60.3118 24.415 60.3166C24.2619 60.3214 24.1127 60.3664 23.9826 60.4471L15.4251 65.9521L9.04797 59.5751L14.5531 51.0177C14.6338 50.8876 14.6788 50.7384 14.6836 50.5854C14.6884 50.4323 14.6527 50.2806 14.5803 50.1457C13.6542 48.4683 12.9159 46.6557 12.3728 44.7769C12.3274 44.6276 12.2428 44.4932 12.1277 44.3877C12.0127 44.2823 11.8714 44.2096 11.7187 44.1774L1.74419 41.9972V33.0038L11.7187 30.8236C11.8714 30.7913 12.0127 30.7187 12.1277 30.6132C12.2428 30.5078 12.3274 30.3734 12.3728 30.224C12.9159 28.3452 13.6542 26.5327 14.5803 24.8553C14.6527 24.7203 14.6884 24.5687 14.6836 24.4156C14.6788 24.2625 14.6338 24.1134 14.5531 23.9832L9.04797 15.4259L15.4251 9.04881L23.9826 14.5538C24.1127 14.6345 24.2619 14.6796 24.415 14.6843C24.568 14.6891 24.7197 14.6535 24.8547 14.5811C26.5321 13.655 28.3446 12.9167 30.2235 12.3736C30.3728 12.3282 30.5072 12.2436 30.6126 12.1285C30.7181 12.0135 30.7908 11.8723 30.823 11.7196L33.0033 1.74512ZM37.5 20.9309C28.3591 20.9309 20.9302 28.3597 20.9302 37.5005C20.9302 46.6413 28.3591 54.07 37.5 54.07C46.6409 54.07 54.0698 46.6413 54.0698 37.5005C54.0698 28.3597 46.6409 20.9309 37.5 20.9309ZM37.5 22.6751C45.6983 22.6751 52.3256 29.3023 52.3256 37.5005C52.3256 45.6986 45.6983 52.3259 37.5 52.3259C29.3017 52.3259 22.6744 45.6986 22.6744 37.5005C22.6744 29.3023 29.3017 22.6751 37.5 22.6751Z" fill="#BEBEBE"/>
<path d="M32.1312 0.000958529C31.9632 0.0350341 31.8091 0.117825 31.6879 0.238993C31.5667 0.360161 31.4839 0.514337 31.4499 0.682272L29.2424 10.902C27.6005 11.4112 26.0255 12.0477 24.5276 12.8369L15.7522 7.19563C15.5854 7.0865 15.3862 7.03779 15.1879 7.05763C14.9895 7.07746 14.804 7.16464 14.6621 7.30464L7.30378 14.6628C7.16377 14.8047 7.07659 14.9903 7.05676 15.1886C7.03692 15.387 7.08563 15.5861 7.19477 15.7529L12.8361 24.5283C12.0469 26.0261 11.4104 27.6011 10.9012 29.243L0.681323 31.4504C0.489007 31.4935 0.316967 31.6005 0.193242 31.7539C0.0695169 31.9074 0.0014025 32.0982 0 32.2952V42.7057C0.0014025 42.9028 0.0695169 43.0936 0.193242 43.247C0.316967 43.4004 0.489007 43.5074 0.681323 43.5505L10.9012 45.758C11.4104 47.3999 12.0469 48.9748 12.8361 50.4727L7.19477 59.248C7.08563 59.4148 7.03692 59.614 7.05676 59.8123C7.07659 60.0107 7.16377 60.1962 7.30378 60.3381L14.6621 67.6963C14.804 67.8363 14.9895 67.9235 15.1879 67.9433C15.3862 67.9632 15.5854 67.9145 15.7522 67.8053L24.5276 62.164C26.0255 62.9532 27.6005 63.5898 29.2424 64.099L31.4499 74.3187C31.493 74.511 31.6 74.683 31.7534 74.8068C31.9068 74.9305 32.0976 74.9986 32.2947 75H42.7053C42.9024 74.9986 43.0932 74.9305 43.2466 74.8068C43.4 74.683 43.507 74.511 43.5501 74.3187L45.7576 64.099C47.3995 63.5898 48.9745 62.9532 50.4724 62.164L59.2478 67.8053C59.4146 67.9145 59.6138 67.9632 59.8121 67.9433C60.0105 67.9235 60.196 67.8363 60.3379 67.6963L67.6962 60.3381C67.8362 60.1962 67.9234 60.0107 67.9432 59.8123C67.9631 59.614 67.9144 59.4148 67.8052 59.248L62.1639 50.4727C62.9531 48.9748 63.5896 47.3999 64.0988 45.758L74.3187 43.5505C74.511 43.5074 74.683 43.4004 74.8068 43.247C74.9305 43.0936 74.9986 42.9028 75 42.7057V32.2952C74.9986 32.0982 74.9305 31.9074 74.8068 31.7539C74.683 31.6005 74.511 31.4935 74.3187 31.4504L64.0988 29.243C63.5896 27.6011 62.9531 26.0261 62.1639 24.5283L67.8052 15.7529C67.9144 15.5861 67.9631 15.387 67.9432 15.1886C67.9234 14.9903 67.8362 14.8047 67.6962 14.6628L60.3379 7.30464C60.196 7.16464 60.0105 7.07746 59.8121 7.05763C59.6138 7.03779 59.4146 7.0865 59.2478 7.19563L50.4724 12.8369C48.9745 12.0477 47.3995 11.4112 45.7576 10.902L43.5501 0.682272C43.507 0.489959 43.4 0.317921 43.2466 0.194198C43.0932 0.0704745 42.9024 0.00236101 42.7053 0.000958529H32.2947C32.2675 -0.00031951 32.2402 -0.00031951 32.2129 0.000958529C32.1857 -0.00031951 32.1584 -0.00031951 32.1312 0.000958529ZM33.0033 1.74512H41.9967L44.177 11.7196C44.2092 11.8723 44.2819 12.0135 44.3874 12.1285C44.4928 12.2436 44.6272 12.3282 44.7765 12.3736C46.6554 12.9167 48.4679 13.655 50.1453 14.5811C50.2803 14.6535 50.432 14.6891 50.585 14.6843C50.7381 14.6796 50.8873 14.6345 51.0174 14.5538L59.5749 9.04881L65.952 15.4259L60.4469 23.9832C60.3662 24.1134 60.3212 24.2625 60.3164 24.4156C60.3116 24.5687 60.3473 24.7203 60.4197 24.8553C61.3458 26.5327 62.0841 28.3452 62.6272 30.224C62.6726 30.3734 62.7572 30.5078 62.8723 30.6132C62.9873 30.7187 63.1286 30.7913 63.2812 30.8236L73.2558 33.0038V41.9972L63.2812 44.1774C63.1286 44.2096 62.9873 44.2823 62.8723 44.3877C62.7572 44.4932 62.6726 44.6276 62.6272 44.7769C62.0841 46.6557 61.3458 48.4683 60.4197 50.1457C60.3473 50.2806 60.3116 50.4323 60.3164 50.5854C60.3212 50.7384 60.3662 50.8876 60.4469 51.0177L65.952 59.5751L59.5749 65.9521L51.0174 60.4471C50.8873 60.3664 50.7381 60.3214 50.585 60.3166C50.432 60.3118 50.2803 60.3474 50.1453 60.4199C48.4679 61.346 46.6554 62.0843 44.7765 62.6273C44.6272 62.6727 44.4928 62.7574 44.3874 62.8724C44.2819 62.9875 44.2092 63.1287 44.177 63.2814L41.9967 73.2558H33.0033L30.823 63.2814C30.7908 63.1287 30.7181 62.9875 30.6126 62.8724C30.5072 62.7574 30.3728 62.6727 30.2235 62.6273C28.3446 62.0843 26.5321 61.346 24.8547 60.4199C24.7197 60.3474 24.568 60.3118 24.415 60.3166C24.2619 60.3214 24.1127 60.3664 23.9826 60.4471L15.4251 65.9521L9.04797 59.5751L14.5531 51.0177C14.6338 50.8876 14.6788 50.7384 14.6836 50.5854C14.6884 50.4323 14.6527 50.2806 14.5803 50.1457C13.6542 48.4683 12.9159 46.6557 12.3728 44.7769C12.3274 44.6276 12.2428 44.4932 12.1277 44.3877C12.0127 44.2823 11.8714 44.2096 11.7187 44.1774L1.74419 41.9972V33.0038L11.7187 30.8236C11.8714 30.7913 12.0127 30.7187 12.1277 30.6132C12.2428 30.5078 12.3274 30.3734 12.3728 30.224C12.9159 28.3452 13.6542 26.5327 14.5803 24.8553C14.6527 24.7203 14.6884 24.5687 14.6836 24.4156C14.6788 24.2625 14.6338 24.1134 14.5531 23.9832L9.04797 15.4259L15.4251 9.04881L23.9826 14.5538C24.1127 14.6345 24.2619 14.6796 24.415 14.6843C24.568 14.6891 24.7197 14.6535 24.8547 14.5811C26.5321 13.655 28.3446 12.9167 30.2235 12.3736C30.3728 12.3282 30.5072 12.2436 30.6126 12.1285C30.7181 12.0135 30.7908 11.8723 30.823 11.7196L33.0033 1.74512ZM37.5 20.9309C28.3591 20.9309 20.9302 28.3597 20.9302 37.5005C20.9302 46.6413 28.3591 54.07 37.5 54.07C46.6409 54.07 54.0698 46.6413 54.0698 37.5005C54.0698 28.3597 46.6409 20.9309 37.5 20.9309ZM37.5 22.6751C45.6983 22.6751 52.3256 29.3023 52.3256 37.5005C52.3256 45.6986 45.6983 52.3259 37.5 52.3259C29.3017 52.3259 22.6744 45.6986 22.6744 37.5005C22.6744 29.3023 29.3017 22.6751 37.5 22.6751Z" fill="#BEBEBE"/>
<path d="M32.1312 0.000958529C31.9632 0.0350341 31.8091 0.117825 31.6879 0.238993C31.5667 0.360161 31.4839 0.514337 31.4499 0.682272L29.2424 10.902C27.6005 11.4112 26.0255 12.0477 24.5276 12.8369L15.7522 7.19563C15.5854 7.0865 15.3862 7.03779 15.1879 7.05763C14.9895 7.07746 14.804 7.16464 14.6621 7.30464L7.30378 14.6628C7.16377 14.8047 7.07659 14.9903 7.05676 15.1886C7.03692 15.387 7.08563 15.5861 7.19477 15.7529L12.8361 24.5283C12.0469 26.0261 11.4104 27.6011 10.9012 29.243L0.681323 31.4504C0.489007 31.4935 0.316967 31.6005 0.193242 31.7539C0.0695169 31.9074 0.0014025 32.0982 0 32.2952V42.7057C0.0014025 42.9028 0.0695169 43.0936 0.193242 43.247C0.316967 43.4004 0.489007 43.5074 0.681323 43.5505L10.9012 45.758C11.4104 47.3999 12.0469 48.9748 12.8361 50.4727L7.19477 59.248C7.08563 59.4148 7.03692 59.614 7.05676 59.8123C7.07659 60.0107 7.16377 60.1962 7.30378 60.3381L14.6621 67.6963C14.804 67.8363 14.9895 67.9235 15.1879 67.9433C15.3862 67.9632 15.5854 67.9145 15.7522 67.8053L24.5276 62.164C26.0255 62.9532 27.6005 63.5898 29.2424 64.099L31.4499 74.3187C31.493 74.511 31.6 74.683 31.7534 74.8068C31.9068 74.9305 32.0976 74.9986 32.2947 75H42.7053C42.9024 74.9986 43.0932 74.9305 43.2466 74.8068C43.4 74.683 43.507 74.511 43.5501 74.3187L45.7576 64.099C47.3995 63.5898 48.9745 62.9532 50.4724 62.164L59.2478 67.8053C59.4146 67.9145 59.6138 67.9632 59.8121 67.9433C60.0105 67.9235 60.196 67.8363 60.3379 67.6963L67.6962 60.3381C67.8362 60.1962 67.9234 60.0107 67.9432 59.8123C67.9631 59.614 67.9144 59.4148 67.8052 59.248L62.1639 50.4727C62.9531 48.9748 63.5896 47.3999 64.0988 45.758L74.3187 43.5505C74.511 43.5074 74.683 43.4004 74.8068 43.247C74.9305 43.0936 74.9986 42.9028 75 42.7057V32.2952C74.9986 32.0982 74.9305 31.9074 74.8068 31.7539C74.683 31.6005 74.511 31.4935 74.3187 31.4504L64.0988 29.243C63.5896 27.6011 62.9531 26.0261 62.1639 24.5283L67.8052 15.7529C67.9144 15.5861 67.9631 15.387 67.9432 15.1886C67.9234 14.9903 67.8362 14.8047 67.6962 14.6628L60.3379 7.30464C60.196 7.16464 60.0105 7.07746 59.8121 7.05763C59.6138 7.03779 59.4146 7.0865 59.2478 7.19563L50.4724 12.8369C48.9745 12.0477 47.3995 11.4112 45.7576 10.902L43.5501 0.682272C43.507 0.489959 43.4 0.317921 43.2466 0.194198C43.0932 0.0704745 42.9024 0.00236101 42.7053 0.000958529H32.2947C32.2675 -0.00031951 32.2402 -0.00031951 32.2129 0.000958529C32.1857 -0.00031951 32.1584 -0.00031951 32.1312 0.000958529ZM33.0033 1.74512H41.9967L44.177 11.7196C44.2092 11.8723 44.2819 12.0135 44.3874 12.1285C44.4928 12.2436 44.6272 12.3282 44.7765 12.3736C46.6554 12.9167 48.4679 13.655 50.1453 14.5811C50.2803 14.6535 50.432 14.6891 50.585 14.6843C50.7381 14.6796 50.8873 14.6345 51.0174 14.5538L59.5749 9.04881L65.952 15.4259L60.4469 23.9832C60.3662 24.1134 60.3212 24.2625 60.3164 24.4156C60.3116 24.5687 60.3473 24.7203 60.4197 24.8553C61.3458 26.5327 62.0841 28.3452 62.6272 30.224C62.6726 30.3734 62.7572 30.5078 62.8723 30.6132C62.9873 30.7187 63.1286 30.7913 63.2812 30.8236L73.2558 33.0038V41.9972L63.2812 44.1774C63.1286 44.2096 62.9873 44.2823 62.8723 44.3877C62.7572 44.4932 62.6726 44.6276 62.6272 44.7769C62.0841 46.6557 61.3458 48.4683 60.4197 50.1457C60.3473 50.2806 60.3116 50.4323 60.3164 50.5854C60.3212 50.7384 60.3662 50.8876 60.4469 51.0177L65.952 59.5751L59.5749 65.9521L51.0174 60.4471C50.8873 60.3664 50.7381 60.3214 50.585 60.3166C50.432 60.3118 50.2803 60.3474 50.1453 60.4199C48.4679 61.346 46.6554 62.0843 44.7765 62.6273C44.6272 62.6727 44.4928 62.7574 44.3874 62.8724C44.2819 62.9875 44.2092 63.1287 44.177 63.2814L41.9967 73.2558H33.0033L30.823 63.2814C30.7908 63.1287 30.7181 62.9875 30.6126 62.8724C30.5072 62.7574 30.3728 62.6727 30.2235 62.6273C28.3446 62.0843 26.5321 61.346 24.8547 60.4199C24.7197 60.3474 24.568 60.3118 24.415 60.3166C24.2619 60.3214 24.1127 60.3664 23.9826 60.4471L15.4251 65.9521L9.04797 59.5751L14.5531 51.0177C14.6338 50.8876 14.6788 50.7384 14.6836 50.5854C14.6884 50.4323 14.6527 50.2806 14.5803 50.1457C13.6542 48.4683 12.9159 46.6557 12.3728 44.7769C12.3274 44.6276 12.2428 44.4932 12.1277 44.3877C12.0127 44.2823 11.8714 44.2096 11.7187 44.1774L1.74419 41.9972V33.0038L11.7187 30.8236C11.8714 30.7913 12.0127 30.7187 12.1277 30.6132C12.2428 30.5078 12.3274 30.3734 12.3728 30.224C12.9159 28.3452 13.6542 26.5327 14.5803 24.8553C14.6527 24.7203 14.6884 24.5687 14.6836 24.4156C14.6788 24.2625 14.6338 24.1134 14.5531 23.9832L9.04797 15.4259L15.4251 9.04881L23.9826 14.5538C24.1127 14.6345 24.2619 14.6796 24.415 14.6843C24.568 14.6891 24.7197 14.6535 24.8547 14.5811C26.5321 13.655 28.3446 12.9167 30.2235 12.3736C30.3728 12.3282 30.5072 12.2436 30.6126 12.1285C30.7181 12.0135 30.7908 11.8723 30.823 11.7196L33.0033 1.74512ZM37.5 20.9309C28.3591 20.9309 20.9302 28.3597 20.9302 37.5005C20.9302 46.6413 28.3591 54.07 37.5 54.07C46.6409 54.07 54.0698 46.6413 54.0698 37.5005C54.0698 28.3597 46.6409 20.9309 37.5 20.9309ZM37.5 22.6751C45.6983 22.6751 52.3256 29.3023 52.3256 37.5005C52.3256 45.6986 45.6983 52.3259 37.5 52.3259C29.3017 52.3259 22.6744 45.6986 22.6744 37.5005C22.6744 29.3023 29.3017 22.6751 37.5 22.6751Z" fill="#BEBEBE"/>
<path d="M32.1312 0.000958529C31.9632 0.0350341 31.8091 0.117825 31.6879 0.238993C31.5667 0.360161 31.4839 0.514337 31.4499 0.682272L29.2424 10.902C27.6005 11.4112 26.0255 12.0477 24.5276 12.8369L15.7522 7.19563C15.5854 7.0865 15.3862 7.03779 15.1879 7.05763C14.9895 7.07746 14.804 7.16464 14.6621 7.30464L7.30378 14.6628C7.16377 14.8047 7.07659 14.9903 7.05676 15.1886C7.03692 15.387 7.08563 15.5861 7.19477 15.7529L12.8361 24.5283C12.0469 26.0261 11.4104 27.6011 10.9012 29.243L0.681323 31.4504C0.489007 31.4935 0.316967 31.6005 0.193242 31.7539C0.0695169 31.9074 0.0014025 32.0982 0 32.2952V42.7057C0.0014025 42.9028 0.0695169 43.0936 0.193242 43.247C0.316967 43.4004 0.489007 43.5074 0.681323 43.5505L10.9012 45.758C11.4104 47.3999 12.0469 48.9748 12.8361 50.4727L7.19477 59.248C7.08563 59.4148 7.03692 59.614 7.05676 59.8123C7.07659 60.0107 7.16377 60.1962 7.30378 60.3381L14.6621 67.6963C14.804 67.8363 14.9895 67.9235 15.1879 67.9433C15.3862 67.9632 15.5854 67.9145 15.7522 67.8053L24.5276 62.164C26.0255 62.9532 27.6005 63.5898 29.2424 64.099L31.4499 74.3187C31.493 74.511 31.6 74.683 31.7534 74.8068C31.9068 74.9305 32.0976 74.9986 32.2947 75H42.7053C42.9024 74.9986 43.0932 74.9305 43.2466 74.8068C43.4 74.683 43.507 74.511 43.5501 74.3187L45.7576 64.099C47.3995 63.5898 48.9745 62.9532 50.4724 62.164L59.2478 67.8053C59.4146 67.9145 59.6138 67.9632 59.8121 67.9433C60.0105 67.9235 60.196 67.8363 60.3379 67.6963L67.6962 60.3381C67.8362 60.1962 67.9234 60.0107 67.9432 59.8123C67.9631 59.614 67.9144 59.4148 67.8052 59.248L62.1639 50.4727C62.9531 48.9748 63.5896 47.3999 64.0988 45.758L74.3187 43.5505C74.511 43.5074 74.683 43.4004 74.8068 43.247C74.9305 43.0936 74.9986 42.9028 75 42.7057V32.2952C74.9986 32.0982 74.9305 31.9074 74.8068 31.7539C74.683 31.6005 74.511 31.4935 74.3187 31.4504L64.0988 29.243C63.5896 27.6011 62.9531 26.0261 62.1639 24.5283L67.8052 15.7529C67.9144 15.5861 67.9631 15.387 67.9432 15.1886C67.9234 14.9903 67.8362 14.8047 67.6962 14.6628L60.3379 7.30464C60.196 7.16464 60.0105 7.07746 59.8121 7.05763C59.6138 7.03779 59.4146 7.0865 59.2478 7.19563L50.4724 12.8369C48.9745 12.0477 47.3995 11.4112 45.7576 10.902L43.5501 0.682272C43.507 0.489959 43.4 0.317921 43.2466 0.194198C43.0932 0.0704745 42.9024 0.00236101 42.7053 0.000958529H32.2947C32.2675 -0.00031951 32.2402 -0.00031951 32.2129 0.000958529C32.1857 -0.00031951 32.1584 -0.00031951 32.1312 0.000958529ZM33.0033 1.74512H41.9967L44.177 11.7196C44.2092 11.8723 44.2819 12.0135 44.3874 12.1285C44.4928 12.2436 44.6272 12.3282 44.7765 12.3736C46.6554 12.9167 48.4679 13.655 50.1453 14.5811C50.2803 14.6535 50.432 14.6891 50.585 14.6843C50.7381 14.6796 50.8873 14.6345 51.0174 14.5538L59.5749 9.04881L65.952 15.4259L60.4469 23.9832C60.3662 24.1134 60.3212 24.2625 60.3164 24.4156C60.3116 24.5687 60.3473 24.7203 60.4197 24.8553C61.3458 26.5327 62.0841 28.3452 62.6272 30.224C62.6726 30.3734 62.7572 30.5078 62.8723 30.6132C62.9873 30.7187 63.1286 30.7913 63.2812 30.8236L73.2558 33.0038V41.9972L63.2812 44.1774C63.1286 44.2096 62.9873 44.2823 62.8723 44.3877C62.7572 44.4932 62.6726 44.6276 62.6272 44.7769C62.0841 46.6557 61.3458 48.4683 60.4197 50.1457C60.3473 50.2806 60.3116 50.4323 60.3164 50.5854C60.3212 50.7384 60.3662 50.8876 60.4469 51.0177L65.952 59.5751L59.5749 65.9521L51.0174 60.4471C50.8873 60.3664 50.7381 60.3214 50.585 60.3166C50.432 60.3118 50.2803 60.3474 50.1453 60.4199C48.4679 61.346 46.6554 62.0843 44.7765 62.6273C44.6272 62.6727 44.4928 62.7574 44.3874 62.8724C44.2819 62.9875 44.2092 63.1287 44.177 63.2814L41.9967 73.2558H33.0033L30.823 63.2814C30.7908 63.1287 30.7181 62.9875 30.6126 62.8724C30.5072 62.7574 30.3728 62.6727 30.2235 62.6273C28.3446 62.0843 26.5321 61.346 24.8547 60.4199C24.7197 60.3474 24.568 60.3118 24.415 60.3166C24.2619 60.3214 24.1127 60.3664 23.9826 60.4471L15.4251 65.9521L9.04797 59.5751L14.5531 51.0177C14.6338 50.8876 14.6788 50.7384 14.6836 50.5854C14.6884 50.4323 14.6527 50.2806 14.5803 50.1457C13.6542 48.4683 12.9159 46.6557 12.3728 44.7769C12.3274 44.6276 12.2428 44.4932 12.1277 44.3877C12.0127 44.2823 11.8714 44.2096 11.7187 44.1774L1.74419 41.9972V33.0038L11.7187 30.8236C11.8714 30.7913 12.0127 30.7187 12.1277 30.6132C12.2428 30.5078 12.3274 30.3734 12.3728 30.224C12.9159 28.3452 13.6542 26.5327 14.5803 24.8553C14.6527 24.7203 14.6884 24.5687 14.6836 24.4156C14.6788 24.2625 14.6338 24.1134 14.5531 23.9832L9.04797 15.4259L15.4251 9.04881L23.9826 14.5538C24.1127 14.6345 24.2619 14.6796 24.415 14.6843C24.568 14.6891 24.7197 14.6535 24.8547 14.5811C26.5321 13.655 28.3446 12.9167 30.2235 12.3736C30.3728 12.3282 30.5072 12.2436 30.6126 12.1285C30.7181 12.0135 30.7908 11.8723 30.823 11.7196L33.0033 1.74512ZM37.5 20.9309C28.3591 20.9309 20.9302 28.3597 20.9302 37.5005C20.9302 46.6413 28.3591 54.07 37.5 54.07C46.6409 54.07 54.0698 46.6413 54.0698 37.5005C54.0698 28.3597 46.6409 20.9309 37.5 20.9309ZM37.5 22.6751C45.6983 22.6751 52.3256 29.3023 52.3256 37.5005C52.3256 45.6986 45.6983 52.3259 37.5 52.3259C29.3017 52.3259 22.6744 45.6986 22.6744 37.5005C22.6744 29.3023 29.3017 22.6751 37.5 22.6751Z" fill="#BEBEBE"/>
<path d="M32.1312 0.000958529C31.9632 0.0350341 31.8091 0.117825 31.6879 0.238993C31.5667 0.360161 31.4839 0.514337 31.4499 0.682272L29.2424 10.902C27.6005 11.4112 26.0255 12.0477 24.5276 12.8369L15.7522 7.19563C15.5854 7.0865 15.3862 7.03779 15.1879 7.05763C14.9895 7.07746 14.804 7.16464 14.6621 7.30464L7.30378 14.6628C7.16377 14.8047 7.07659 14.9903 7.05676 15.1886C7.03692 15.387 7.08563 15.5861 7.19477 15.7529L12.8361 24.5283C12.0469 26.0261 11.4104 27.6011 10.9012 29.243L0.681323 31.4504C0.489007 31.4935 0.316967 31.6005 0.193242 31.7539C0.0695169 31.9074 0.0014025 32.0982 0 32.2952V42.7057C0.0014025 42.9028 0.0695169 43.0936 0.193242 43.247C0.316967 43.4004 0.489007 43.5074 0.681323 43.5505L10.9012 45.758C11.4104 47.3999 12.0469 48.9748 12.8361 50.4727L7.19477 59.248C7.08563 59.4148 7.03692 59.614 7.05676 59.8123C7.07659 60.0107 7.16377 60.1962 7.30378 60.3381L14.6621 67.6963C14.804 67.8363 14.9895 67.9235 15.1879 67.9433C15.3862 67.9632 15.5854 67.9145 15.7522 67.8053L24.5276 62.164C26.0255 62.9532 27.6005 63.5898 29.2424 64.099L31.4499 74.3187C31.493 74.511 31.6 74.683 31.7534 74.8068C31.9068 74.9305 32.0976 74.9986 32.2947 75H42.7053C42.9024 74.9986 43.0932 74.9305 43.2466 74.8068C43.4 74.683 43.507 74.511 43.5501 74.3187L45.7576 64.099C47.3995 63.5898 48.9745 62.9532 50.4724 62.164L59.2478 67.8053C59.4146 67.9145 59.6138 67.9632 59.8121 67.9433C60.0105 67.9235 60.196 67.8363 60.3379 67.6963L67.6962 60.3381C67.8362 60.1962 67.9234 60.0107 67.9432 59.8123C67.9631 59.614 67.9144 59.4148 67.8052 59.248L62.1639 50.4727C62.9531 48.9748 63.5896 47.3999 64.0988 45.758L74.3187 43.5505C74.511 43.5074 74.683 43.4004 74.8068 43.247C74.9305 43.0936 74.9986 42.9028 75 42.7057V32.2952C74.9986 32.0982 74.9305 31.9074 74.8068 31.7539C74.683 31.6005 74.511 31.4935 74.3187 31.4504L64.0988 29.243C63.5896 27.6011 62.9531 26.0261 62.1639 24.5283L67.8052 15.7529C67.9144 15.5861 67.9631 15.387 67.9432 15.1886C67.9234 14.9903 67.8362 14.8047 67.6962 14.6628L60.3379 7.30464C60.196 7.16464 60.0105 7.07746 59.8121 7.05763C59.6138 7.03779 59.4146 7.0865 59.2478 7.19563L50.4724 12.8369C48.9745 12.0477 47.3995 11.4112 45.7576 10.902L43.5501 0.682272C43.507 0.489959 43.4 0.317921 43.2466 0.194198C43.0932 0.0704745 42.9024 0.00236101 42.7053 0.000958529H32.2947C32.2675 -0.00031951 32.2402 -0.00031951 32.2129 0.000958529C32.1857 -0.00031951 32.1584 -0.00031951 32.1312 0.000958529ZM33.0033 1.74512H41.9967L44.177 11.7196C44.2092 11.8723 44.2819 12.0135 44.3874 12.1285C44.4928 12.2436 44.6272 12.3282 44.7765 12.3736C46.6554 12.9167 48.4679 13.655 50.1453 14.5811C50.2803 14.6535 50.432 14.6891 50.585 14.6843C50.7381 14.6796 50.8873 14.6345 51.0174 14.5538L59.5749 9.04881L65.952 15.4259L60.4469 23.9832C60.3662 24.1134 60.3212 24.2625 60.3164 24.4156C60.3116 24.5687 60.3473 24.7203 60.4197 24.8553C61.3458 26.5327 62.0841 28.3452 62.6272 30.224C62.6726 30.3734 62.7572 30.5078 62.8723 30.6132C62.9873 30.7187 63.1286 30.7913 63.2812 30.8236L73.2558 33.0038V41.9972L63.2812 44.1774C63.1286 44.2096 62.9873 44.2823 62.8723 44.3877C62.7572 44.4932 62.6726 44.6276 62.6272 44.7769C62.0841 46.6557 61.3458 48.4683 60.4197 50.1457C60.3473 50.2806 60.3116 50.4323 60.3164 50.5854C60.3212 50.7384 60.3662 50.8876 60.4469 51.0177L65.952 59.5751L59.5749 65.9521L51.0174 60.4471C50.8873 60.3664 50.7381 60.3214 50.585 60.3166C50.432 60.3118 50.2803 60.3474 50.1453 60.4199C48.4679 61.346 46.6554 62.0843 44.7765 62.6273C44.6272 62.6727 44.4928 62.7574 44.3874 62.8724C44.2819 62.9875 44.2092 63.1287 44.177 63.2814L41.9967 73.2558H33.0033L30.823 63.2814C30.7908 63.1287 30.7181 62.9875 30.6126 62.8724C30.5072 62.7574 30.3728 62.6727 30.2235 62.6273C28.3446 62.0843 26.5321 61.346 24.8547 60.4199C24.7197 60.3474 24.568 60.3118 24.415 60.3166C24.2619 60.3214 24.1127 60.3664 23.9826 60.4471L15.4251 65.9521L9.04797 59.5751L14.5531 51.0177C14.6338 50.8876 14.6788 50.7384 14.6836 50.5854C14.6884 50.4323 14.6527 50.2806 14.5803 50.1457C13.6542 48.4683 12.9159 46.6557 12.3728 44.7769C12.3274 44.6276 12.2428 44.4932 12.1277 44.3877C12.0127 44.2823 11.8714 44.2096 11.7187 44.1774L1.74419 41.9972V33.0038L11.7187 30.8236C11.8714 30.7913 12.0127 30.7187 12.1277 30.6132C12.2428 30.5078 12.3274 30.3734 12.3728 30.224C12.9159 28.3452 13.6542 26.5327 14.5803 24.8553C14.6527 24.7203 14.6884 24.5687 14.6836 24.4156C14.6788 24.2625 14.6338 24.1134 14.5531 23.9832L9.04797 15.4259L15.4251 9.04881L23.9826 14.5538C24.1127 14.6345 24.2619 14.6796 24.415 14.6843C24.568 14.6891 24.7197 14.6535 24.8547 14.5811C26.5321 13.655 28.3446 12.9167 30.2235 12.3736C30.3728 12.3282 30.5072 12.2436 30.6126 12.1285C30.7181 12.0135 30.7908 11.8723 30.823 11.7196L33.0033 1.74512ZM37.5 20.9309C28.3591 20.9309 20.9302 28.3597 20.9302 37.5005C20.9302 46.6413 28.3591 54.07 37.5 54.07C46.6409 54.07 54.0698 46.6413 54.0698 37.5005C54.0698 28.3597 46.6409 20.9309 37.5 20.9309ZM37.5 22.6751C45.6983 22.6751 52.3256 29.3023 52.3256 37.5005C52.3256 45.6986 45.6983 52.3259 37.5 52.3259C29.3017 52.3259 22.6744 45.6986 22.6744 37.5005C22.6744 29.3023 29.3017 22.6751 37.5 22.6751Z" fill="#BEBEBE"/>
<path d="M32.1312 0.000958529C31.9632 0.0350341 31.8091 0.117825 31.6879 0.238993C31.5667 0.360161 31.4839 0.514337 31.4499 0.682272L29.2424 10.902C27.6005 11.4112 26.0255 12.0477 24.5276 12.8369L15.7522 7.19563C15.5854 7.0865 15.3862 7.03779 15.1879 7.05763C14.9895 7.07746 14.804 7.16464 14.6621 7.30464L7.30378 14.6628C7.16377 14.8047 7.07659 14.9903 7.05676 15.1886C7.03692 15.387 7.08563 15.5861 7.19477 15.7529L12.8361 24.5283C12.0469 26.0261 11.4104 27.6011 10.9012 29.243L0.681323 31.4504C0.489007 31.4935 0.316967 31.6005 0.193242 31.7539C0.0695169 31.9074 0.0014025 32.0982 0 32.2952V42.7057C0.0014025 42.9028 0.0695169 43.0936 0.193242 43.247C0.316967 43.4004 0.489007 43.5074 0.681323 43.5505L10.9012 45.758C11.4104 47.3999 12.0469 48.9748 12.8361 50.4727L7.19477 59.248C7.08563 59.4148 7.03692 59.614 7.05676 59.8123C7.07659 60.0107 7.16377 60.1962 7.30378 60.3381L14.6621 67.6963C14.804 67.8363 14.9895 67.9235 15.1879 67.9433C15.3862 67.9632 15.5854 67.9145 15.7522 67.8053L24.5276 62.164C26.0255 62.9532 27.6005 63.5898 29.2424 64.099L31.4499 74.3187C31.493 74.511 31.6 74.683 31.7534 74.8068C31.9068 74.9305 32.0976 74.9986 32.2947 75H42.7053C42.9024 74.9986 43.0932 74.9305 43.2466 74.8068C43.4 74.683 43.507 74.511 43.5501 74.3187L45.7576 64.099C47.3995 63.5898 48.9745 62.9532 50.4724 62.164L59.2478 67.8053C59.4146 67.9145 59.6138 67.9632 59.8121 67.9433C60.0105 67.9235 60.196 67.8363 60.3379 67.6963L67.6962 60.3381C67.8362 60.1962 67.9234 60.0107 67.9432 59.8123C67.9631 59.614 67.9144 59.4148 67.8052 59.248L62.1639 50.4727C62.9531 48.9748 63.5896 47.3999 64.0988 45.758L74.3187 43.5505C74.511 43.5074 74.683 43.4004 74.8068 43.247C74.9305 43.0936 74.9986 42.9028 75 42.7057V32.2952C74.9986 32.0982 74.9305 31.9074 74.8068 31.7539C74.683 31.6005 74.511 31.4935 74.3187 31.4504L64.0988 29.243C63.5896 27.6011 62.9531 26.0261 62.1639 24.5283L67.8052 15.7529C67.9144 15.5861 67.9631 15.387 67.9432 15.1886C67.9234 14.9903 67.8362 14.8047 67.6962 14.6628L60.3379 7.30464C60.196 7.16464 60.0105 7.07746 59.8121 7.05763C59.6138 7.03779 59.4146 7.0865 59.2478 7.19563L50.4724 12.8369C48.9745 12.0477 47.3995 11.4112 45.7576 10.902L43.5501 0.682272C43.507 0.489959 43.4 0.317921 43.2466 0.194198C43.0932 0.0704745 42.9024 0.00236101 42.7053 0.000958529H32.2947C32.2675 -0.00031951 32.2402 -0.00031951 32.2129 0.000958529C32.1857 -0.00031951 32.1584 -0.00031951 32.1312 0.000958529ZM33.0033 1.74512H41.9967L44.177 11.7196C44.2092 11.8723 44.2819 12.0135 44.3874 12.1285C44.4928 12.2436 44.6272 12.3282 44.7765 12.3736C46.6554 12.9167 48.4679 13.655 50.1453 14.5811C50.2803 14.6535 50.432 14.6891 50.585 14.6843C50.7381 14.6796 50.8873 14.6345 51.0174 14.5538L59.5749 9.04881L65.952 15.4259L60.4469 23.9832C60.3662 24.1134 60.3212 24.2625 60.3164 24.4156C60.3116 24.5687 60.3473 24.7203 60.4197 24.8553C61.3458 26.5327 62.0841 28.3452 62.6272 30.224C62.6726 30.3734 62.7572 30.5078 62.8723 30.6132C62.9873 30.7187 63.1286 30.7913 63.2812 30.8236L73.2558 33.0038V41.9972L63.2812 44.1774C63.1286 44.2096 62.9873 44.2823 62.8723 44.3877C62.7572 44.4932 62.6726 44.6276 62.6272 44.7769C62.0841 46.6557 61.3458 48.4683 60.4197 50.1457C60.3473 50.2806 60.3116 50.4323 60.3164 50.5854C60.3212 50.7384 60.3662 50.8876 60.4469 51.0177L65.952 59.5751L59.5749 65.9521L51.0174 60.4471C50.8873 60.3664 50.7381 60.3214 50.585 60.3166C50.432 60.3118 50.2803 60.3474 50.1453 60.4199C48.4679 61.346 46.6554 62.0843 44.7765 62.6273C44.6272 62.6727 44.4928 62.7574 44.3874 62.8724C44.2819 62.9875 44.2092 63.1287 44.177 63.2814L41.9967 73.2558H33.0033L30.823 63.2814C30.7908 63.1287 30.7181 62.9875 30.6126 62.8724C30.5072 62.7574 30.3728 62.6727 30.2235 62.6273C28.3446 62.0843 26.5321 61.346 24.8547 60.4199C24.7197 60.3474 24.568 60.3118 24.415 60.3166C24.2619 60.3214 24.1127 60.3664 23.9826 60.4471L15.4251 65.9521L9.04797 59.5751L14.5531 51.0177C14.6338 50.8876 14.6788 50.7384 14.6836 50.5854C14.6884 50.4323 14.6527 50.2806 14.5803 50.1457C13.6542 48.4683 12.9159 46.6557 12.3728 44.7769C12.3274 44.6276 12.2428 44.4932 12.1277 44.3877C12.0127 44.2823 11.8714 44.2096 11.7187 44.1774L1.74419 41.9972V33.0038L11.7187 30.8236C11.8714 30.7913 12.0127 30.7187 12.1277 30.6132C12.2428 30.5078 12.3274 30.3734 12.3728 30.224C12.9159 28.3452 13.6542 26.5327 14.5803 24.8553C14.6527 24.7203 14.6884 24.5687 14.6836 24.4156C14.6788 24.2625 14.6338 24.1134 14.5531 23.9832L9.04797 15.4259L15.4251 9.04881L23.9826 14.5538C24.1127 14.6345 24.2619 14.6796 24.415 14.6843C24.568 14.6891 24.7197 14.6535 24.8547 14.5811C26.5321 13.655 28.3446 12.9167 30.2235 12.3736C30.3728 12.3282 30.5072 12.2436 30.6126 12.1285C30.7181 12.0135 30.7908 11.8723 30.823 11.7196L33.0033 1.74512ZM37.5 20.9309C28.3591 20.9309 20.9302 28.3597 20.9302 37.5005C20.9302 46.6413 28.3591 54.07 37.5 54.07C46.6409 54.07 54.0698 46.6413 54.0698 37.5005C54.0698 28.3597 46.6409 20.9309 37.5 20.9309ZM37.5 22.6751C45.6983 22.6751 52.3256 29.3023 52.3256 37.5005C52.3256 45.6986 45.6983 52.3259 37.5 52.3259C29.3017 52.3259 22.6744 45.6986 22.6744 37.5005C22.6744 29.3023 29.3017 22.6751 37.5 22.6751Z" fill="#BEBEBE"/>
<path d="M32.1312 0.000958529C31.9632 0.0350341 31.8091 0.117825 31.6879 0.238993C31.5667 0.360161 31.4839 0.514337 31.4499 0.682272L29.2424 10.902C27.6005 11.4112 26.0255 12.0477 24.5276 12.8369L15.7522 7.19563C15.5854 7.0865 15.3862 7.03779 15.1879 7.05763C14.9895 7.07746 14.804 7.16464 14.6621 7.30464L7.30378 14.6628C7.16377 14.8047 7.07659 14.9903 7.05676 15.1886C7.03692 15.387 7.08563 15.5861 7.19477 15.7529L12.8361 24.5283C12.0469 26.0261 11.4104 27.6011 10.9012 29.243L0.681323 31.4504C0.489007 31.4935 0.316967 31.6005 0.193242 31.7539C0.0695169 31.9074 0.0014025 32.0982 0 32.2952V42.7057C0.0014025 42.9028 0.0695169 43.0936 0.193242 43.247C0.316967 43.4004 0.489007 43.5074 0.681323 43.5505L10.9012 45.758C11.4104 47.3999 12.0469 48.9748 12.8361 50.4727L7.19477 59.248C7.08563 59.4148 7.03692 59.614 7.05676 59.8123C7.07659 60.0107 7.16377 60.1962 7.30378 60.3381L14.6621 67.6963C14.804 67.8363 14.9895 67.9235 15.1879 67.9433C15.3862 67.9632 15.5854 67.9145 15.7522 67.8053L24.5276 62.164C26.0255 62.9532 27.6005 63.5898 29.2424 64.099L31.4499 74.3187C31.493 74.511 31.6 74.683 31.7534 74.8068C31.9068 74.9305 32.0976 74.9986 32.2947 75H42.7053C42.9024 74.9986 43.0932 74.9305 43.2466 74.8068C43.4 74.683 43.507 74.511 43.5501 74.3187L45.7576 64.099C47.3995 63.5898 48.9745 62.9532 50.4724 62.164L59.2478 67.8053C59.4146 67.9145 59.6138 67.9632 59.8121 67.9433C60.0105 67.9235 60.196 67.8363 60.3379 67.6963L67.6962 60.3381C67.8362 60.1962 67.9234 60.0107 67.9432 59.8123C67.9631 59.614 67.9144 59.4148 67.8052 59.248L62.1639 50.4727C62.9531 48.9748 63.5896 47.3999 64.0988 45.758L74.3187 43.5505C74.511 43.5074 74.683 43.4004 74.8068 43.247C74.9305 43.0936 74.9986 42.9028 75 42.7057V32.2952C74.9986 32.0982 74.9305 31.9074 74.8068 31.7539C74.683 31.6005 74.511 31.4935 74.3187 31.4504L64.0988 29.243C63.5896 27.6011 62.9531 26.0261 62.1639 24.5283L67.8052 15.7529C67.9144 15.5861 67.9631 15.387 67.9432 15.1886C67.9234 14.9903 67.8362 14.8047 67.6962 14.6628L60.3379 7.30464C60.196 7.16464 60.0105 7.07746 59.8121 7.05763C59.6138 7.03779 59.4146 7.0865 59.2478 7.19563L50.4724 12.8369C48.9745 12.0477 47.3995 11.4112 45.7576 10.902L43.5501 0.682272C43.507 0.489959 43.4 0.317921 43.2466 0.194198C43.0932 0.0704745 42.9024 0.00236101 42.7053 0.000958529H32.2947C32.2675 -0.00031951 32.2402 -0.00031951 32.2129 0.000958529C32.1857 -0.00031951 32.1584 -0.00031951 32.1312 0.000958529ZM33.0033 1.74512H41.9967L44.177 11.7196C44.2092 11.8723 44.2819 12.0135 44.3874 12.1285C44.4928 12.2436 44.6272 12.3282 44.7765 12.3736C46.6554 12.9167 48.4679 13.655 50.1453 14.5811C50.2803 14.6535 50.432 14.6891 50.585 14.6843C50.7381 14.6796 50.8873 14.6345 51.0174 14.5538L59.5749 9.04881L65.952 15.4259L60.4469 23.9832C60.3662 24.1134 60.3212 24.2625 60.3164 24.4156C60.3116 24.5687 60.3473 24.7203 60.4197 24.8553C61.3458 26.5327 62.0841 28.3452 62.6272 30.224C62.6726 30.3734 62.7572 30.5078 62.8723 30.6132C62.9873 30.7187 63.1286 30.7913 63.2812 30.8236L73.2558 33.0038V41.9972L63.2812 44.1774C63.1286 44.2096 62.9873 44.2823 62.8723 44.3877C62.7572 44.4932 62.6726 44.6276 62.6272 44.7769C62.0841 46.6557 61.3458 48.4683 60.4197 50.1457C60.3473 50.2806 60.3116 50.4323 60.3164 50.5854C60.3212 50.7384 60.3662 50.8876 60.4469 51.0177L65.952 59.5751L59.5749 65.9521L51.0174 60.4471C50.8873 60.3664 50.7381 60.3214 50.585 60.3166C50.432 60.3118 50.2803 60.3474 50.1453 60.4199C48.4679 61.346 46.6554 62.0843 44.7765 62.6273C44.6272 62.6727 44.4928 62.7574 44.3874 62.8724C44.2819 62.9875 44.2092 63.1287 44.177 63.2814L41.9967 73.2558H33.0033L30.823 63.2814C30.7908 63.1287 30.7181 62.9875 30.6126 62.8724C30.5072 62.7574 30.3728 62.6727 30.2235 62.6273C28.3446 62.0843 26.5321 61.346 24.8547 60.4199C24.7197 60.3474 24.568 60.3118 24.415 60.3166C24.2619 60.3214 24.1127 60.3664 23.9826 60.4471L15.4251 65.9521L9.04797 59.5751L14.5531 51.0177C14.6338 50.8876 14.6788 50.7384 14.6836 50.5854C14.6884 50.4323 14.6527 50.2806 14.5803 50.1457C13.6542 48.4683 12.9159 46.6557 12.3728 44.7769C12.3274 44.6276 12.2428 44.4932 12.1277 44.3877C12.0127 44.2823 11.8714 44.2096 11.7187 44.1774L1.74419 41.9972V33.0038L11.7187 30.8236C11.8714 30.7913 12.0127 30.7187 12.1277 30.6132C12.2428 30.5078 12.3274 30.3734 12.3728 30.224C12.9159 28.3452 13.6542 26.5327 14.5803 24.8553C14.6527 24.7203 14.6884 24.5687 14.6836 24.4156C14.6788 24.2625 14.6338 24.1134 14.5531 23.9832L9.04797 15.4259L15.4251 9.04881L23.9826 14.5538C24.1127 14.6345 24.2619 14.6796 24.415 14.6843C24.568 14.6891 24.7197 14.6535 24.8547 14.5811C26.5321 13.655 28.3446 12.9167 30.2235 12.3736C30.3728 12.3282 30.5072 12.2436 30.6126 12.1285C30.7181 12.0135 30.7908 11.8723 30.823 11.7196L33.0033 1.74512ZM37.5 20.9309C28.3591 20.9309 20.9302 28.3597 20.9302 37.5005C20.9302 46.6413 28.3591 54.07 37.5 54.07C46.6409 54.07 54.0698 46.6413 54.0698 37.5005C54.0698 28.3597 46.6409 20.9309 37.5 20.9309ZM37.5 22.6751C45.6983 22.6751 52.3256 29.3023 52.3256 37.5005C52.3256 45.6986 45.6983 52.3259 37.5 52.3259C29.3017 52.3259 22.6744 45.6986 22.6744 37.5005C22.6744 29.3023 29.3017 22.6751 37.5 22.6751Z" fill="#BEBEBE"/>
<path d="M32.1312 0.000958529C31.9632 0.0350341 31.8091 0.117825 31.6879 0.238993C31.5667 0.360161 31.4839 0.514337 31.4499 0.682272L29.2424 10.902C27.6005 11.4112 26.0255 12.0477 24.5276 12.8369L15.7522 7.19563C15.5854 7.0865 15.3862 7.03779 15.1879 7.05763C14.9895 7.07746 14.804 7.16464 14.6621 7.30464L7.30378 14.6628C7.16377 14.8047 7.07659 14.9903 7.05676 15.1886C7.03692 15.387 7.08563 15.5861 7.19477 15.7529L12.8361 24.5283C12.0469 26.0261 11.4104 27.6011 10.9012 29.243L0.681323 31.4504C0.489007 31.4935 0.316967 31.6005 0.193242 31.7539C0.0695169 31.9074 0.0014025 32.0982 0 32.2952V42.7057C0.0014025 42.9028 0.0695169 43.0936 0.193242 43.247C0.316967 43.4004 0.489007 43.5074 0.681323 43.5505L10.9012 45.758C11.4104 47.3999 12.0469 48.9748 12.8361 50.4727L7.19477 59.248C7.08563 59.4148 7.03692 59.614 7.05676 59.8123C7.07659 60.0107 7.16377 60.1962 7.30378 60.3381L14.6621 67.6963C14.804 67.8363 14.9895 67.9235 15.1879 67.9433C15.3862 67.9632 15.5854 67.9145 15.7522 67.8053L24.5276 62.164C26.0255 62.9532 27.6005 63.5898 29.2424 64.099L31.4499 74.3187C31.493 74.511 31.6 74.683 31.7534 74.8068C31.9068 74.9305 32.0976 74.9986 32.2947 75H42.7053C42.9024 74.9986 43.0932 74.9305 43.2466 74.8068C43.4 74.683 43.507 74.511 43.5501 74.3187L45.7576 64.099C47.3995 63.5898 48.9745 62.9532 50.4724 62.164L59.2478 67.8053C59.4146 67.9145 59.6138 67.9632 59.8121 67.9433C60.0105 67.9235 60.196 67.8363 60.3379 67.6963L67.6962 60.3381C67.8362 60.1962 67.9234 60.0107 67.9432 59.8123C67.9631 59.614 67.9144 59.4148 67.8052 59.248L62.1639 50.4727C62.9531 48.9748 63.5896 47.3999 64.0988 45.758L74.3187 43.5505C74.511 43.5074 74.683 43.4004 74.8068 43.247C74.9305 43.0936 74.9986 42.9028 75 42.7057V32.2952C74.9986 32.0982 74.9305 31.9074 74.8068 31.7539C74.683 31.6005 74.511 31.4935 74.3187 31.4504L64.0988 29.243C63.5896 27.6011 62.9531 26.0261 62.1639 24.5283L67.8052 15.7529C67.9144 15.5861 67.9631 15.387 67.9432 15.1886C67.9234 14.9903 67.8362 14.8047 67.6962 14.6628L60.3379 7.30464C60.196 7.16464 60.0105 7.07746 59.8121 7.05763C59.6138 7.03779 59.4146 7.0865 59.2478 7.19563L50.4724 12.8369C48.9745 12.0477 47.3995 11.4112 45.7576 10.902L43.5501 0.682272C43.507 0.489959 43.4 0.317921 43.2466 0.194198C43.0932 0.0704745 42.9024 0.00236101 42.7053 0.000958529H32.2947C32.2675 -0.00031951 32.2402 -0.00031951 32.2129 0.000958529C32.1857 -0.00031951 32.1584 -0.00031951 32.1312 0.000958529ZM33.0033 1.74512H41.9967L44.177 11.7196C44.2092 11.8723 44.2819 12.0135 44.3874 12.1285C44.4928 12.2436 44.6272 12.3282 44.7765 12.3736C46.6554 12.9167 48.4679 13.655 50.1453 14.5811C50.2803 14.6535 50.432 14.6891 50.585 14.6843C50.7381 14.6796 50.8873 14.6345 51.0174 14.5538L59.5749 9.04881L65.952 15.4259L60.4469 23.9832C60.3662 24.1134 60.3212 24.2625 60.3164 24.4156C60.3116 24.5687 60.3473 24.7203 60.4197 24.8553C61.3458 26.5327 62.0841 28.3452 62.6272 30.224C62.6726 30.3734 62.7572 30.5078 62.8723 30.6132C62.9873 30.7187 63.1286 30.7913 63.2812 30.8236L73.2558 33.0038V41.9972L63.2812 44.1774C63.1286 44.2096 62.9873 44.2823 62.8723 44.3877C62.7572 44.4932 62.6726 44.6276 62.6272 44.7769C62.0841 46.6557 61.3458 48.4683 60.4197 50.1457C60.3473 50.2806 60.3116 50.4323 60.3164 50.5854C60.3212 50.7384 60.3662 50.8876 60.4469 51.0177L65.952 59.5751L59.5749 65.9521L51.0174 60.4471C50.8873 60.3664 50.7381 60.3214 50.585 60.3166C50.432 60.3118 50.2803 60.3474 50.1453 60.4199C48.4679 61.346 46.6554 62.0843 44.7765 62.6273C44.6272 62.6727 44.4928 62.7574 44.3874 62.8724C44.2819 62.9875 44.2092 63.1287 44.177 63.2814L41.9967 73.2558H33.0033L30.823 63.2814C30.7908 63.1287 30.7181 62.9875 30.6126 62.8724C30.5072 62.7574 30.3728 62.6727 30.2235 62.6273C28.3446 62.0843 26.5321 61.346 24.8547 60.4199C24.7197 60.3474 24.568 60.3118 24.415 60.3166C24.2619 60.3214 24.1127 60.3664 23.9826 60.4471L15.4251 65.9521L9.04797 59.5751L14.5531 51.0177C14.6338 50.8876 14.6788 50.7384 14.6836 50.5854C14.6884 50.4323 14.6527 50.2806 14.5803 50.1457C13.6542 48.4683 12.9159 46.6557 12.3728 44.7769C12.3274 44.6276 12.2428 44.4932 12.1277 44.3877C12.0127 44.2823 11.8714 44.2096 11.7187 44.1774L1.74419 41.9972V33.0038L11.7187 30.8236C11.8714 30.7913 12.0127 30.7187 12.1277 30.6132C12.2428 30.5078 12.3274 30.3734 12.3728 30.224C12.9159 28.3452 13.6542 26.5327 14.5803 24.8553C14.6527 24.7203 14.6884 24.5687 14.6836 24.4156C14.6788 24.2625 14.6338 24.1134 14.5531 23.9832L9.04797 15.4259L15.4251 9.04881L23.9826 14.5538C24.1127 14.6345 24.2619 14.6796 24.415 14.6843C24.568 14.6891 24.7197 14.6535 24.8547 14.5811C26.5321 13.655 28.3446 12.9167 30.2235 12.3736C30.3728 12.3282 30.5072 12.2436 30.6126 12.1285C30.7181 12.0135 30.7908 11.8723 30.823 11.7196L33.0033 1.74512ZM37.5 20.9309C28.3591 20.9309 20.9302 28.3597 20.9302 37.5005C20.9302 46.6413 28.3591 54.07 37.5 54.07C46.6409 54.07 54.0698 46.6413 54.0698 37.5005C54.0698 28.3597 46.6409 20.9309 37.5 20.9309ZM37.5 22.6751C45.6983 22.6751 52.3256 29.3023 52.3256 37.5005C52.3256 45.6986 45.6983 52.3259 37.5 52.3259C29.3017 52.3259 22.6744 45.6986 22.6744 37.5005C22.6744 29.3023 29.3017 22.6751 37.5 22.6751Z" fill="#BEBEBE"/>
</svg>
