<svg width="65" height="65" viewBox="0 0 65 65" fill="none" xmlns="http://www.w3.org/2000/svg">
<g clip-path="url(#clip0_387_12)">
<path d="M63.0524 39.6256L57.0779 34.9538C57.1564 34.2333 57.2187 33.3911 57.2187 32.5C57.2187 31.6089 57.1537 30.7667 57.0779 30.0462L63.0579 25.3717C64.1683 24.4942 64.4743 22.9369 63.7647 21.6397L57.5518 10.8903C56.8719 9.65263 55.3472 9.08654 53.9579 9.59842L46.908 12.4286C45.5593 11.4536 44.1429 10.6303 42.6776 9.97217L41.6051 2.4945C41.4291 1.0725 40.1941 0 38.7343 0H26.276C24.8162 0 23.5812 1.0725 23.4079 2.46733L22.3327 9.97217C20.9135 10.614 19.5188 11.4239 18.1077 12.4314L11.0389 9.59309C9.68753 9.06496 8.14911 9.62292 7.47207 10.8633L1.25099 21.6289C0.51707 22.8693 0.817695 24.4781 1.95519 25.3772L7.92974 30.0464C7.8349 30.9618 7.78895 31.7553 7.78895 32.5001C7.78895 33.245 7.83503 34.0384 7.9244 34.9539L1.9444 39.6312C0.836611 40.5086 0.533193 42.0658 1.24007 43.3631L7.45303 54.1125C8.1274 55.3475 9.64944 55.9108 11.0469 55.4044L18.0968 52.5742C19.4455 53.5465 20.8647 54.3698 22.3299 55.0306L23.4024 62.5056C23.5785 63.9275 24.8135 65 26.2732 65H38.7315C40.1913 65 41.4263 63.9275 41.5996 62.5327L42.6748 55.0306C44.094 54.3887 45.4887 53.5789 46.8998 52.5714L53.9685 55.4097C55.3146 55.9324 56.8584 55.3799 57.5354 54.1395L63.7809 43.336C64.4716 42.0686 64.1682 40.5112 63.0524 39.6256ZM61.4138 42.0089L54.9626 52.891L47.2087 49.7764C46.7699 49.6003 46.2716 49.6681 45.8924 49.9497C44.2132 51.2064 42.591 52.1516 40.928 52.8314C40.4838 53.0128 40.1669 53.4164 40.0993 53.8931L38.7316 62.2917L26.0918 62.1481L24.9082 53.8958C24.8377 53.4191 24.5237 53.0156 24.0794 52.8341C22.3488 52.1245 20.6832 51.1577 19.1259 49.9605C18.8848 49.7736 18.5923 49.6788 18.2998 49.6788C18.1291 49.6788 17.9585 49.7086 17.7934 49.7763L9.81728 52.7852L3.60432 42.0358C3.54744 41.9302 3.55823 41.8083 3.62323 41.7569L10.1964 36.6192C10.5701 36.3267 10.7651 35.8555 10.7056 35.3842C10.562 34.2494 10.497 33.3313 10.497 32.4999C10.497 31.6685 10.5646 30.753 10.7056 29.6155C10.7651 29.1416 10.5701 28.673 10.1964 28.3805L3.59099 22.9937L10.0422 12.1117L17.7962 15.2262C18.2376 15.405 18.7332 15.3373 19.1151 15.053C20.7915 13.7936 22.4165 12.8511 24.0794 12.1713C24.5237 11.987 24.8377 11.5836 24.9055 11.1095L26.276 2.70829L38.9185 2.85454L40.0993 11.1095C40.1697 11.5863 40.4838 11.9897 40.928 12.1713C42.656 12.8781 44.3216 13.845 45.8816 15.0448C46.2635 15.3373 46.7646 15.4078 47.2114 15.2262L55.1875 12.2173L61.4005 22.9667C61.4574 23.0723 61.4466 23.1915 61.3816 23.243L54.8084 28.3806C54.4347 28.6731 54.2397 29.1417 54.2992 29.6156C54.4022 30.4389 54.5078 31.4275 54.5078 32.5C54.5078 33.5752 54.4022 34.5611 54.2992 35.3844C54.2397 35.8556 54.4347 36.3269 54.8084 36.6194L61.3734 41.7544C61.4436 41.8112 61.4572 41.9331 61.4138 42.0089Z" fill="#BEBEBE"/>
<path d="M32.5024 18.9583C25.0355 18.9583 18.9607 25.0331 18.9607 32.5C18.9607 39.9668 25.0355 46.0417 32.5024 46.0417C39.9693 46.0417 46.0441 39.9668 46.0441 32.5C46.0441 25.0331 39.9693 18.9583 32.5024 18.9583ZM32.5024 43.3333C26.5279 43.3333 21.6691 38.4745 21.6691 32.5C21.6691 26.5254 26.5279 21.6667 32.5024 21.6667C38.4769 21.6667 43.3357 26.5254 43.3357 32.5C43.3357 38.4745 38.4769 43.3333 32.5024 43.3333Z" fill="#BEBEBE"/>
</g>
<defs>
<clipPath id="clip0_387_12">
<rect width="65" height="65" fill="white"/>
</clipPath>
</defs>
</svg>
