<svg width="33" height="33" viewBox="0 0 33 33" fill="none" xmlns="http://www.w3.org/2000/svg">
<g clip-path="url(#clip0_509_125)">
<mask id="mask0_509_125" style="mask-type:luminance" maskUnits="userSpaceOnUse" x="0" y="0" width="33" height="33">
<path d="M33 0H0V33H33V0Z" fill="white"/>
</mask>
<g mask="url(#mask0_509_125)">
<path d="M32.0112 20.1176L28.978 17.7458C29.0178 17.38 29.0495 16.9524 29.0495 16.5C29.0495 16.0476 29.0165 15.62 28.978 15.2542L32.014 12.881C32.5777 12.4355 32.7331 11.6449 32.3728 10.9863L29.2186 5.52892C28.8734 4.90057 28.0993 4.61317 27.394 4.87304L23.8148 6.30991C23.1301 5.81491 22.411 5.39692 21.6671 5.06279L21.1226 1.26644C21.0332 0.5445 20.4062 0 19.6651 0H13.3401C12.599 0 11.972 0.5445 11.884 1.25264L11.3381 5.06279C10.6176 5.38865 9.90953 5.79983 9.19312 6.31133L5.60435 4.87034C4.91827 4.60221 4.13722 4.88548 3.79349 5.51521L0.635101 10.9808C0.262495 11.6106 0.41512 12.4273 0.992617 12.8838L4.02585 15.2543C3.9777 15.7191 3.95437 16.1219 3.95437 16.5001C3.95437 16.8782 3.97777 17.281 4.02314 17.7458L0.987139 20.1205C0.424724 20.5659 0.270681 21.3565 0.629557 22.0151L3.78383 27.4725C4.1262 28.0995 4.89893 28.3855 5.60841 28.1284L9.18759 26.6915C9.87231 27.1851 10.5928 27.6031 11.3367 27.9386L11.8812 31.7336C11.9706 32.4555 12.5976 33 13.3387 33H19.6637C20.4048 33 21.0318 32.4555 21.1198 31.7474L21.6656 27.9386C22.3862 27.6127 23.0942 27.2016 23.8106 26.6901L27.3994 28.1311C28.0828 28.3965 28.8666 28.116 29.2103 27.4862L32.3811 22.0014C32.7317 21.3579 32.5777 20.5672 32.0112 20.1176ZM31.1793 21.3276L27.9041 26.8524L23.9675 25.2711C23.7447 25.1817 23.4917 25.2161 23.2992 25.3591C22.4467 25.9971 21.6231 26.477 20.7788 26.8221C20.5533 26.9142 20.3924 27.1191 20.3581 27.3611L19.6637 31.625L13.2466 31.5521L12.6457 27.3625C12.6099 27.1205 12.4505 26.9156 12.2249 26.8235C11.3463 26.4632 10.5007 25.9724 9.71005 25.3646C9.58765 25.2697 9.43915 25.2215 9.29065 25.2215C9.20399 25.2215 9.11737 25.2367 9.03355 25.271L4.98414 26.7986L1.82987 21.3413C1.80099 21.2876 1.80647 21.2258 1.83947 21.1997L5.17662 18.5913C5.36634 18.4428 5.46534 18.2036 5.43513 17.9643C5.36223 17.3882 5.32923 16.922 5.32923 16.5C5.32923 16.0779 5.36355 15.6131 5.43513 15.0356C5.46534 14.795 5.36634 14.5571 5.17662 14.4086L1.8231 11.6737L5.09833 6.14902L9.03498 7.73023C9.25907 7.821 9.51068 7.78663 9.70457 7.64229C10.5557 7.00291 11.3807 6.5244 12.2249 6.17928C12.4505 6.08571 12.6099 5.8809 12.6443 5.64021L13.3401 1.37498L19.7586 1.44923L20.3581 5.64021C20.3938 5.88228 20.5533 6.08708 20.7788 6.17928C21.6561 6.53811 22.5017 7.029 23.2937 7.63813C23.4876 7.78663 23.742 7.82242 23.9688 7.73023L28.0183 6.20263L31.1725 11.66C31.2014 11.7136 31.1959 11.7741 31.1629 11.8003L27.8258 14.4086C27.6361 14.5571 27.5371 14.795 27.5673 15.0356C27.6196 15.4536 27.6732 15.9555 27.6732 16.5C27.6732 17.0459 27.6196 17.5464 27.5673 17.9644C27.5371 18.2036 27.6361 18.4429 27.8258 18.5914L31.1588 21.1984C31.1944 21.2272 31.2013 21.2891 31.1793 21.3276Z" fill="#BEBEBE"/>
<path d="M16.5012 9.625C12.7104 9.625 9.62622 12.7091 9.62622 16.5C9.62622 20.2909 12.7104 23.375 16.5012 23.375C20.2921 23.375 23.3763 20.2909 23.3763 16.5C23.3763 12.7091 20.2921 9.625 16.5012 9.625ZM16.5012 22C13.468 22 11.0013 19.5332 11.0013 16.5C11.0013 13.4668 13.468 11 16.5012 11C19.5344 11 22.0012 13.4668 22.0012 16.5C22.0012 19.5332 19.5344 22 16.5012 22Z" fill="#BEBEBE"/>
</g>
</g>
<defs>
<clipPath id="clip0_509_125">
<rect width="33" height="33" fill="white"/>
</clipPath>
</defs>
</svg>
